<svg width="60" height="60" viewBox="0 0 60 60" fill="none" xmlns="http://www.w3.org/2000/svg">
<path d="M16.8749 8.43746C16.8749 5.8528 14.7721 3.75 12.1875 3.75C9.6028 3.75 7.5 5.8528 7.5 8.43746C7.5 11.0221 9.6028 13.1249 12.1875 13.1249C14.7721 13.1249 16.8749 11.0221 16.8749 8.43746ZM9.37499 8.43746C9.37499 6.88685 10.6369 5.62499 12.1875 5.62499C13.7381 5.62499 14.9999 6.88685 14.9999 8.43746C14.9999 9.98808 13.7381 11.2499 12.1875 11.2499C10.6369 11.2499 9.37499 9.98808 9.37499 8.43746Z" fill="#263238"/>
<path d="M59.9995 55.3071V15.9374C59.9995 15.4189 59.5795 14.9999 59.062 14.9999H47.817C47.8138 14.9999 47.8105 14.9999 47.8072 14.9999H32.8172C32.8139 14.9999 32.8106 14.9999 32.8073 14.9999H18.3787C19.6428 12.5173 20.6248 10.0653 20.6248 8.43743C20.6248 3.78466 16.8392 0 12.1874 0C7.53557 0 3.74997 3.78466 3.74997 8.43743C3.74997 10.0653 4.73188 12.5173 5.99609 14.9999H0.937493C0.419997 14.9999 0 15.4189 0 15.9374V47.8072C0 47.8105 0 47.8138 0 47.817V59.062C0 59.5805 0.419997 59.9995 0.937493 59.9995H59.062C59.5795 59.9995 59.9995 59.5805 59.9995 59.062V55.317C59.9995 55.3137 59.9995 55.3104 59.9995 55.3071ZM58.1245 53.049L35.0753 29.9998L48.2002 16.8749H58.1245V53.049ZM12.1874 1.87499C15.8061 1.87499 18.7499 4.81965 18.7499 8.43743C18.7499 11.2499 14.5461 18.1911 12.1874 21.7611C9.82773 18.192 5.62496 11.2518 5.62496 8.43743C5.62496 4.81965 8.56868 1.87499 12.1874 1.87499ZM6.99721 16.8749C8.89716 20.2883 11.0025 23.3712 11.4158 23.9698C11.5912 24.2239 11.879 24.3748 12.1874 24.3748C12.4958 24.3748 12.7836 24.2239 12.959 23.9698C13.3724 23.3712 15.4777 20.2883 17.3776 16.8749H30.5491L1.87499 45.549V16.8749H6.99721ZM1.87499 48.2002L33.2004 16.8749H45.549L4.29934 58.1245H1.87499V48.2002ZM19.6873 45.3878L26.5245 52.2249C26.7073 52.4077 26.9473 52.4996 27.1873 52.4996C27.4273 52.4996 27.6673 52.4077 27.8501 52.2249L34.6872 45.3878L47.424 58.1245H6.95057L19.6873 45.3878ZM27.1873 50.2365L21.013 44.0622L27.1873 37.8878L33.3616 44.0622L27.1873 50.2365ZM50.0752 58.1245L28.5129 36.5622L33.7497 31.3254L58.1245 55.7002V58.1245H50.0752Z" fill="#263238"/>
<path d="M55.3125 20.625C55.5562 20.625 55.8 20.5219 55.9781 20.3531C56.1469 20.175 56.25 19.9312 56.25 19.6875C56.25 19.4334 56.1469 19.1991 55.9781 19.0219C55.6219 18.675 54.9937 18.675 54.6469 19.0219C54.4781 19.1991 54.375 19.4437 54.375 19.6875C54.375 19.9312 54.4781 20.175 54.6469 20.3531C54.825 20.5219 55.0687 20.625 55.3125 20.625Z" fill="#263238"/>
<path d="M55.3125 24.375C55.5562 24.375 55.8 24.2719 55.9781 24.1031C56.1469 23.925 56.25 23.6812 56.25 23.4375C56.25 23.1937 56.1469 22.9491 55.9781 22.7719C55.6219 22.425 55.0031 22.425 54.6469 22.7719C54.4781 22.9491 54.375 23.1937 54.375 23.4375C54.375 23.6906 54.4781 23.925 54.6469 24.1031C54.825 24.2719 55.0687 24.375 55.3125 24.375Z" fill="#263238"/>
<path d="M55.3125 28.125C55.5562 28.125 55.8 28.0219 55.9781 27.8531C56.1469 27.675 56.25 27.4312 56.25 27.1875C56.25 26.9437 56.1469 26.6991 55.9781 26.5219C55.6219 26.175 54.9937 26.175 54.6469 26.5219C54.4781 26.6991 54.375 26.9334 54.375 27.1875C54.375 27.4406 54.4781 27.675 54.6469 27.8531C54.825 28.0219 55.0687 28.125 55.3125 28.125Z" fill="#263238"/>
<path d="M55.3125 31.875C55.5562 31.875 55.8 31.7719 55.9781 31.6031C56.1469 31.425 56.25 31.1906 56.25 30.9375C56.25 30.6834 56.1469 30.4491 55.9781 30.2719C55.6312 29.925 54.9937 29.925 54.6469 30.2719C54.4781 30.4491 54.375 30.6834 54.375 30.9375C54.375 31.1906 54.4781 31.425 54.6469 31.6031C54.825 31.7719 55.0687 31.875 55.3125 31.875Z" fill="#263238"/>
<path d="M55.3125 35.625C55.5562 35.625 55.8 35.5219 55.9781 35.3531C56.1469 35.175 56.25 34.9312 56.25 34.6875C56.25 34.4437 56.1469 34.1991 55.9781 34.0219C55.6312 33.675 55.0031 33.675 54.6469 34.0219C54.4781 34.1991 54.375 34.4437 54.375 34.6875C54.375 34.9312 54.4781 35.175 54.6469 35.3531C54.825 35.5219 55.0687 35.625 55.3125 35.625Z" fill="#263238"/>
<path d="M55.3125 39.375C55.5562 39.375 55.8 39.2803 55.9781 39.1031C56.1469 38.925 56.25 38.6906 56.25 38.4375C56.25 38.1834 56.1469 37.9491 55.9781 37.7719C55.6219 37.425 54.9937 37.425 54.6469 37.7719C54.4781 37.9491 54.375 38.1937 54.375 38.4375C54.375 38.6812 54.4781 38.925 54.6469 39.1031C54.825 39.2719 55.0687 39.375 55.3125 39.375Z" fill="#263238"/>
<path d="M55.3125 43.125C55.5562 43.125 55.8 43.0219 55.9781 42.8531C56.1469 42.675 56.25 42.4312 56.25 42.1875C56.25 41.9437 56.1469 41.6991 55.9781 41.5219C55.6219 41.175 55.0031 41.175 54.6469 41.5219C54.4781 41.6991 54.375 41.9437 54.375 42.1875C54.375 42.4312 54.4781 42.675 54.6469 42.8531C54.825 43.0219 55.0687 43.125 55.3125 43.125Z" fill="#263238"/>
<path d="M55.3125 46.875C55.5562 46.875 55.8 46.7719 55.9781 46.6031C56.1469 46.425 56.25 46.1812 56.25 45.9375C56.25 45.6937 56.1469 45.4491 55.9781 45.2719C55.6219 44.925 54.9937 44.925 54.6469 45.2719C54.4781 45.4491 54.375 45.6937 54.375 45.9375C54.375 46.1812 54.4781 46.425 54.6469 46.6031C54.825 46.7719 55.0687 46.875 55.3125 46.875Z" fill="#263238"/>
<path d="M51.5625 20.625C51.8062 20.625 52.05 20.5219 52.2281 20.3531C52.3969 20.175 52.5 19.9312 52.5 19.6875C52.5 19.4437 52.3969 19.1991 52.2281 19.0219C51.8812 18.675 51.2531 18.675 50.8969 19.0219C50.7281 19.1991 50.625 19.4334 50.625 19.6875C50.625 19.9312 50.7281 20.175 50.8969 20.3531C51.075 20.5219 51.3187 20.625 51.5625 20.625Z" fill="#263238"/>
<path d="M51.5625 24.375C51.8062 24.375 52.05 24.2719 52.2281 24.1031C52.3969 23.925 52.5 23.6812 52.5 23.4375C52.5 23.1937 52.3969 22.9491 52.2281 22.7719C51.8719 22.425 51.2437 22.425 50.8969 22.7719C50.7281 22.9491 50.625 23.1937 50.625 23.4375C50.625 23.6812 50.7281 23.925 50.8969 24.1031C51.075 24.2719 51.3187 24.375 51.5625 24.375Z" fill="#263238"/>
<path d="M51.5625 28.125C51.8062 28.125 52.05 28.0219 52.2281 27.8531C52.3969 27.675 52.5 27.4312 52.5 27.1875C52.5 26.9437 52.3969 26.6991 52.2281 26.5219C51.8812 26.175 51.2437 26.175 50.8969 26.5219C50.7281 26.6991 50.625 26.9437 50.625 27.1875C50.625 27.4312 50.7281 27.675 50.8969 27.8531C51.075 28.0219 51.3187 28.125 51.5625 28.125Z" fill="#263238"/>
<path d="M51.5625 31.875C51.8062 31.875 52.05 31.7719 52.2281 31.6031C52.3969 31.425 52.5 31.1906 52.5 30.9375C52.5 30.6937 52.3969 30.4491 52.2281 30.2719C51.8719 29.925 51.2437 29.925 50.8969 30.2719C50.7281 30.4491 50.625 30.6937 50.625 30.9375C50.625 31.1812 50.7281 31.425 50.8969 31.6031C51.075 31.7719 51.3187 31.875 51.5625 31.875Z" fill="#263238"/>
<path d="M51.5625 35.625C51.8062 35.625 52.05 35.5219 52.2281 35.3531C52.3969 35.175 52.5 34.9312 52.5 34.6875C52.5 34.4437 52.3969 34.1991 52.2281 34.0219C51.8812 33.675 51.2437 33.675 50.8969 34.0219C50.7281 34.1991 50.625 34.4437 50.625 34.6875C50.625 34.9312 50.7281 35.175 50.8969 35.3531C51.075 35.5219 51.3187 35.625 51.5625 35.625Z" fill="#263238"/>
<path d="M51.5625 39.375C51.8062 39.375 52.05 39.2803 52.2281 39.1031C52.3969 38.925 52.5 38.6812 52.5 38.4375C52.5 38.1834 52.3969 37.9491 52.2281 37.7719C51.8719 37.425 51.2437 37.425 50.8969 37.7719C50.7281 37.9491 50.625 38.1937 50.625 38.4375C50.625 38.6812 50.7281 38.925 50.8969 39.1031C51.075 39.2803 51.3187 39.375 51.5625 39.375Z" fill="#263238"/>
<path d="M51.5625 43.125C51.8062 43.125 52.05 43.0219 52.2281 42.8531C52.3969 42.675 52.5 42.4312 52.5 42.1875C52.5 41.9437 52.3969 41.6991 52.2281 41.5219C51.8719 41.175 51.2437 41.175 50.8969 41.5219C50.7281 41.6991 50.625 41.9437 50.625 42.1875C50.625 42.4406 50.7281 42.675 50.8969 42.8531C51.075 43.0219 51.3187 43.125 51.5625 43.125Z" fill="#263238"/>
<path d="M47.1469 22.7719C46.9781 22.9491 46.875 23.1937 46.875 23.4375C46.875 23.6812 46.9781 23.925 47.1469 24.1031C47.325 24.2719 47.5687 24.375 47.8125 24.375C48.0562 24.375 48.3 24.2719 48.4781 24.1031C48.6469 23.925 48.75 23.6906 48.75 23.4375C48.75 23.1937 48.6469 22.9491 48.4781 22.7719C48.1219 22.425 47.5031 22.425 47.1469 22.7719Z" fill="#263238"/>
<path d="M47.1469 26.5219C46.9781 26.6991 46.875 26.9437 46.875 27.1875C46.875 27.4312 46.9781 27.675 47.1469 27.8531C47.325 28.0219 47.5687 28.125 47.8125 28.125C48.0562 28.125 48.3 28.0219 48.4781 27.8531C48.6469 27.675 48.75 27.4406 48.75 27.1875C48.75 26.9334 48.6469 26.6991 48.4781 26.5219C48.1312 26.175 47.5031 26.175 47.1469 26.5219Z" fill="#263238"/>
<path d="M47.1469 30.2719C46.9781 30.4491 46.875 30.6937 46.875 30.9375C46.875 31.1812 46.9781 31.425 47.1469 31.6031C47.325 31.7719 47.5687 31.875 47.8125 31.875C48.0562 31.875 48.3 31.7719 48.4781 31.6031C48.6469 31.425 48.75 31.1812 48.75 30.9375C48.75 30.6937 48.6469 30.4491 48.4781 30.2719C48.1312 29.925 47.4937 29.925 47.1469 30.2719Z" fill="#263238"/>
<path d="M47.1469 34.0219C46.9781 34.1991 46.875 34.4437 46.875 34.6875C46.875 34.9312 46.9781 35.175 47.1469 35.3531C47.325 35.5219 47.5687 35.625 47.8125 35.625C48.0562 35.625 48.3 35.5219 48.4781 35.3531C48.6469 35.175 48.75 34.9312 48.75 34.6875C48.75 34.4334 48.6469 34.1991 48.4781 34.0219C48.1219 33.675 47.4937 33.675 47.1469 34.0219Z" fill="#263238"/>
<path d="M47.1469 37.7719C46.9781 37.9491 46.875 38.1937 46.875 38.4375C46.875 38.6812 46.9781 38.925 47.1469 39.1031C47.325 39.2803 47.5687 39.375 47.8125 39.375C48.0562 39.375 48.3 39.2719 48.4781 39.1031C48.6469 38.925 48.75 38.6812 48.75 38.4375C48.75 38.1937 48.6469 37.9491 48.4781 37.7719C48.1312 37.425 47.5031 37.425 47.1469 37.7719Z" fill="#263238"/>
<path d="M43.3969 26.5219C43.2281 26.6991 43.125 26.9437 43.125 27.1875C43.125 27.4312 43.2281 27.675 43.3969 27.8531C43.575 28.0219 43.8187 28.125 44.0625 28.125C44.3062 28.125 44.55 28.0219 44.7281 27.8531C44.8969 27.675 45 27.4312 45 27.1875C45 26.9437 44.8969 26.6991 44.7281 26.5219C44.3812 26.175 43.7437 26.175 43.3969 26.5219Z" fill="#263238"/>
<path d="M43.3969 30.2719C43.2281 30.4491 43.125 30.6834 43.125 30.9375C43.125 31.1906 43.2281 31.425 43.3969 31.6031C43.575 31.7719 43.8187 31.875 44.0625 31.875C44.3062 31.875 44.55 31.7719 44.7281 31.6031C44.8969 31.425 45 31.1906 45 30.9375C45 30.6834 44.8969 30.4491 44.7281 30.2719C44.3812 29.925 43.7437 29.925 43.3969 30.2719Z" fill="#263238"/>
<path d="M43.3969 34.0219C43.2281 34.1991 43.125 34.4437 43.125 34.6875C43.125 34.9312 43.2281 35.175 43.3969 35.3531C43.575 35.5219 43.8187 35.625 44.0625 35.625C44.3062 35.625 44.55 35.5219 44.7281 35.3531C44.8969 35.175 45 34.9312 45 34.6875C45 34.4437 44.8969 34.1991 44.7281 34.0219C44.3812 33.675 43.7531 33.675 43.3969 34.0219Z" fill="#263238"/>
<path d="M39.6469 30.2719C39.4781 30.4491 39.375 30.6937 39.375 30.9375C39.375 31.1812 39.4781 31.425 39.6469 31.6031C39.825 31.7719 40.0687 31.875 40.3125 31.875C40.5562 31.875 40.8 31.7719 40.9781 31.6031C41.1469 31.425 41.25 31.1812 41.25 30.9375C41.25 30.6937 41.1469 30.4491 40.9781 30.2719C40.6219 29.925 39.9937 29.925 39.6469 30.2719Z" fill="#263238"/>
</svg>
