<svg width="60" height="60" viewBox="0 0 60 60" fill="none" xmlns="http://www.w3.org/2000/svg">
<path d="M30 34.8871C26.6075 34.8871 23.8477 31.9239 23.8477 28.2815C23.8477 24.639 26.6075 21.6758 30 21.6758C33.3925 21.6758 36.1523 24.639 36.1523 28.2815C36.1523 31.9239 33.3925 34.8871 30 34.8871ZM30 23.5631C27.5768 23.5631 25.6055 25.6797 25.6055 28.2815C25.6055 30.8832 27.5768 32.9998 30 32.9998C32.4232 32.9998 34.3945 30.8832 34.3945 28.2815C34.3945 25.6797 32.4232 23.5631 30 23.5631Z" fill="#263238"/>
<path d="M28.5468 30.8102C28.3239 30.8102 28.101 30.7198 27.9297 30.5385C27.5841 30.1724 27.5803 29.575 27.921 29.204L29.1223 27.8959V25.8577C29.1223 25.3366 29.5158 24.9141 30.0012 24.9141C30.4866 24.9141 30.8801 25.3366 30.8801 25.8577V28.283C30.8801 28.531 30.7892 28.769 30.627 28.9455L29.1726 30.5291C29.0007 30.7164 28.7738 30.8102 28.5468 30.8102Z" fill="#263238"/>
<path d="M59.9945 30.0164C59.9692 29.7714 59.8532 29.5508 59.68 29.3914L52.6525 23.1037C52.4945 22.9624 52.2954 22.885 52.0898 22.885H48.8262C48.3408 22.885 47.9473 23.3075 47.9473 23.8287C47.9473 24.3498 48.3408 24.7723 48.8262 24.7723H51.7717L56.6936 29.1761H41.4258V24.7723H44.9965C45.4819 24.7723 45.8754 24.3498 45.8754 23.8287C45.8754 23.3075 45.4819 22.885 44.9965 22.885H40.9109L30.8789 12.1137V8.94158H39.0398C39.5252 8.94158 39.9188 8.51907 39.9188 7.99791V2.96501C39.9188 2.44385 39.5252 2.02134 39.0398 2.02134H30.8789V0.943669C30.8789 0.422512 30.4854 0 30 0C29.5146 0 29.1211 0.422512 29.1211 0.943669V12.1137L19.0891 22.8849H7.91016C7.70461 22.8849 7.50539 22.9622 7.34754 23.1035L0.320039 29.3913C0.121641 29.5738 0 29.8371 0 30.1197V59.0563C0 59.5775 0.393516 60 0.878906 60H59.1211C59.6065 60 60 59.5775 60 59.0563V30.1197C60 30.0847 59.9979 30.0503 59.9945 30.0164ZM38.1609 3.90868V7.05424H30.8789V3.90868H38.1609ZM8.22832 24.7722H18.5742V29.176H3.30645L8.22832 24.7722ZM25.6055 58.1127V44.9038H29.1211V58.1127H25.6055ZM36.1523 58.1127V52.8029C36.1523 52.2818 35.7588 51.8593 35.2734 51.8593C34.788 51.8593 34.3945 52.2818 34.3945 52.8029V58.1127H30.8789V44.9038H34.3945V48.6898C34.3945 49.211 34.788 49.6335 35.2734 49.6335C35.7588 49.6335 36.1523 49.211 36.1523 48.6898V43.9601C36.1523 43.439 35.7588 43.0165 35.2734 43.0165H24.7266C24.2412 43.0165 23.8477 43.439 23.8477 43.9601V58.1127H20.332V40.0974C20.332 39.5762 19.9385 39.1537 19.4531 39.1537C18.9677 39.1537 18.5742 39.5762 18.5742 40.0974V58.1127H1.75781V31.0633H18.5742V35.9842C18.5742 36.5054 18.9677 36.9279 19.4531 36.9279C19.9385 36.9279 20.332 36.5054 20.332 35.9842V24.2195L30 13.8391L39.668 24.2195V58.1128H36.1523V58.1127ZM58.2422 58.1127H41.4258V31.0633H58.2422V58.1127Z" fill="#263238"/>
<path d="M11.9233 39.5009H7.98828C7.50289 39.5009 7.10938 39.0784 7.10938 38.5572V34.3323C7.10938 33.8112 7.50289 33.3887 7.98828 33.3887H11.9233C12.4087 33.3887 12.8022 33.8112 12.8022 34.3323V38.5572C12.8022 39.0784 12.4087 39.5009 11.9233 39.5009ZM8.86719 37.6135H11.0444V35.276H8.86719V37.6135Z" fill="#263238"/>
<path d="M11.9233 47.6161H7.98828C7.50289 47.6161 7.10938 47.1936 7.10938 46.6724V42.4476C7.10938 41.9264 7.50289 41.5039 7.98828 41.5039H11.9233C12.4087 41.5039 12.8022 41.9264 12.8022 42.4476V46.6724C12.8022 47.1936 12.4087 47.6161 11.9233 47.6161ZM8.86719 45.7288H11.0444V43.3912H8.86719V45.7288Z" fill="#263238"/>
<path d="M11.9233 55.7333H7.98828C7.50289 55.7333 7.10938 55.3108 7.10938 54.7896V50.5648C7.10938 50.0436 7.50289 49.6211 7.98828 49.6211H11.9233C12.4087 49.6211 12.8022 50.0436 12.8022 50.5648V54.7896C12.8022 55.3108 12.4087 55.7333 11.9233 55.7333ZM8.86719 53.846H11.0444V51.5084H8.86719V53.846Z" fill="#263238"/>
<path d="M52.0093 39.5009H48.0742C47.5888 39.5009 47.1953 39.0784 47.1953 38.5572V34.3323C47.1953 33.8112 47.5888 33.3887 48.0742 33.3887H52.0093C52.4946 33.3887 52.8882 33.8112 52.8882 34.3323V38.5572C52.8882 39.0784 52.4946 39.5009 52.0093 39.5009ZM48.9531 37.6135H51.1303V35.276H48.9531V37.6135Z" fill="#263238"/>
<path d="M52.0093 47.6161H48.0742C47.5888 47.6161 47.1953 47.1936 47.1953 46.6724V42.4476C47.1953 41.9264 47.5888 41.5039 48.0742 41.5039H52.0093C52.4946 41.5039 52.8882 41.9264 52.8882 42.4476V46.6724C52.8882 47.1936 52.4946 47.6161 52.0093 47.6161ZM48.9531 45.7288H51.1303V43.3912H48.9531V45.7288Z" fill="#263238"/>
<path d="M52.0093 55.7313H48.0742C47.5888 55.7313 47.1953 55.3088 47.1953 54.7877V50.5628C47.1953 50.0417 47.5888 49.6191 48.0742 49.6191H52.0093C52.4946 49.6191 52.8882 50.0417 52.8882 50.5628V54.7877C52.8882 55.3088 52.4946 55.7313 52.0093 55.7313ZM48.9531 53.844H51.1303V51.5065H48.9531V53.844Z" fill="#263238"/>
</svg>
