<svg width="60" height="60" viewBox="0 0 60 60" fill="none" xmlns="http://www.w3.org/2000/svg">
<path d="M45.9544 20.3178V18.7043C47.9863 17.509 49.301 15.2979 49.301 12.9075V10.0389C49.301 6.33375 46.313 3.3457 42.6078 3.3457C38.9026 3.3457 35.8548 6.33375 35.8548 10.0389V12.9075C35.8548 15.2381 37.05 17.3895 39.0819 18.5847V20.3178C38.1855 20.5569 37.3489 20.9154 36.5122 21.3935C35.1975 18.3457 32.1497 16.1943 28.6238 16.1943C25.1576 16.1943 22.2293 18.2262 20.8548 21.2142C20.0779 20.8557 19.301 20.4971 18.5242 20.3178V18.7043C20.556 17.509 21.8708 15.2979 21.8708 12.9075V10.0389C21.8708 6.33375 18.8827 3.3457 15.1775 3.3457C11.4724 3.3457 8.48431 6.33375 8.48431 10.0389V12.9075C8.48431 15.2381 9.67953 17.3895 11.7114 18.5847V20.3178C6.33292 21.8716 2.6875 26.7122 2.6875 32.3298C2.6875 32.8079 3.10583 33.2262 3.58391 33.2262H21.2732C21.3329 33.2262 21.3927 33.2262 21.4524 33.2262C22.1696 34.3616 23.1855 35.3178 24.3807 36.0349V38.7242C17.2692 40.6365 12.4285 47.031 12.4285 54.4413C12.4285 54.9194 12.8469 55.3377 13.3249 55.3377H44.1018C44.5799 55.3377 44.9983 54.9194 44.9983 54.4413C44.9983 47.0907 39.9186 40.5768 32.8668 38.7242V36.1545C34.1218 35.4373 35.1377 34.4812 35.9146 33.2859H54.2612C54.7393 33.2859 55.1576 32.8676 55.1576 32.3895C55.0979 26.772 51.2732 21.8118 45.9544 20.3178ZM4.48033 31.4931C4.83889 26.8318 8.18551 23.0071 12.7871 21.9314C13.2054 21.8118 13.5042 21.4533 13.5042 21.0349V18.0469C13.5042 17.6883 13.3249 17.3895 13.0261 17.27C11.3528 16.4334 10.2771 14.76 10.2771 12.9075V10.0389C10.2771 7.34969 12.4883 5.13853 15.1775 5.13853C17.8668 5.13853 20.0779 7.34969 20.0779 10.0389V12.9075C20.0779 14.76 18.9425 16.4931 17.2692 17.3298C16.9704 17.4493 16.7313 17.8079 16.7313 18.1664V21.0349C16.7313 21.4533 17.0301 21.8118 17.4485 21.9314C18.4644 22.1704 19.4206 22.529 20.317 23.0071C20.1975 23.6047 20.1377 24.2023 20.1377 24.8596V28.6844C20.1377 29.6405 20.317 30.5967 20.6158 31.4931H4.48033ZM31.552 34.78C31.2532 34.8995 31.0142 35.2581 31.0142 35.6166V39.4413C31.0142 39.8596 31.313 40.2182 31.7313 40.3377C38.066 41.7122 42.7273 47.2102 43.1457 53.6047H14.2214C14.5799 47.2102 19.1218 41.8318 25.4564 40.3975C25.8747 40.278 26.1736 39.9194 26.1736 39.5011V35.5569C26.1736 35.1983 25.9943 34.8995 25.6955 34.78C23.3648 33.6445 21.9305 31.3138 21.9305 28.7441V24.9194C21.9305 21.1545 24.9783 18.1664 28.6835 18.1664C32.3887 18.1664 35.4365 21.2142 35.4365 24.9194V28.6844C35.4365 31.2541 33.9425 33.6445 31.552 34.78ZM36.7512 31.4931C37.05 30.5967 37.2293 29.6405 37.2293 28.6844V24.8596C37.2293 24.3218 37.1696 23.7242 37.05 23.2461C38.0062 22.6485 39.0819 22.2302 40.1576 21.9911C40.5759 21.8716 40.8747 21.513 40.8747 21.0947V18.1067C40.8747 17.7481 40.6955 17.4493 40.3967 17.3298C38.7234 16.4931 37.6477 14.8198 37.6477 12.9672V10.0987C37.6477 7.40945 39.8588 5.19829 42.5481 5.19829C45.2373 5.19829 47.4485 7.40945 47.4485 10.0987V12.9672C47.4485 14.8198 46.313 16.5529 44.6397 17.3895C44.3409 17.5091 44.1018 17.8676 44.1018 18.2262V21.0947C44.1018 21.513 44.4006 21.8716 44.819 21.9911C49.4206 23.0071 52.8269 26.9513 53.2453 31.5529L36.7512 31.4931Z" fill="#263238"/>
</svg>
