<svg width="60" height="56" viewBox="0 0 60 56" fill="none" xmlns="http://www.w3.org/2000/svg">
<path d="M58.3008 48.5368H57.2408V46.1345C57.2408 45.6489 56.8474 45.2556 56.3619 45.2556C55.8764 45.2556 55.483 45.6489 55.483 46.1345V48.5368H52.8791V44.7775C52.8791 43.637 51.9512 42.7091 50.8106 42.7091H46.0982C44.9577 42.7091 44.0298 43.637 44.0298 44.7775V48.5368H40.5717V44.7775C40.5717 43.637 39.6438 42.7091 38.5034 42.7091H33.7909C32.6503 42.7091 31.7224 43.637 31.7224 44.7775V48.5368H28.2645V44.7775C28.2645 43.637 27.3366 42.7091 26.196 42.7091H21.4835C20.343 42.7091 19.4152 43.637 19.4152 44.7775V48.5368H15.9571V44.7775C15.9571 43.637 15.0292 42.7091 13.8887 42.7091H9.17613C8.03555 42.7091 7.10766 43.637 7.10766 44.7775V48.5368H4.50375V39.4707H55.483V42.0329C55.483 42.5184 55.8764 42.9118 56.3619 42.9118C56.8474 42.9118 57.2408 42.5184 57.2408 42.0329V39.4245C57.2408 38.4807 56.473 37.7129 55.5293 37.7129H54.4256C54.4256 36.4413 54.4256 2.70957 54.4256 2.15891C54.4256 1.21508 53.6578 0.447266 52.7141 0.447266H27.8154C26.8716 0.447266 26.1039 1.2152 26.1039 2.15891V11.9987H13.6192C12.6098 11.9987 11.7886 12.8198 11.7886 13.8291V20.8284H7.27289C6.32906 20.8284 5.56137 21.5962 5.56137 22.5399V29.2067C5.56137 29.6922 5.95477 30.0856 6.44027 30.0856C6.92578 30.0856 7.31918 29.6922 7.31918 29.2067V27.3372H11.7887V28.5262C11.7887 29.333 12.3271 30.0545 13.1054 30.2834V37.7129H7.31906V33.3083C7.31906 32.8228 6.92566 32.4294 6.44016 32.4294C5.95465 32.4294 5.56125 32.8228 5.56125 33.3083V37.7129H4.45746C3.51363 37.7129 2.74594 38.4808 2.74594 39.4245V48.5368H1.69922C0.762305 48.5368 0 49.2991 0 50.236V53.8527C0 54.7896 0.762305 55.5519 1.69922 55.5519H58.3008C59.2377 55.5519 60 54.7896 60 53.8527V50.236C60 49.2991 59.2377 48.5368 58.3008 48.5368ZM11.7886 25.5794H7.31906V22.5862H11.7886V25.5794ZM20.6495 37.7129H14.8631V30.3568H20.6495V37.7129ZM28.1936 37.7129H22.4073V30.3568H28.1936V37.7129ZM35.7377 37.7129H29.9514V30.2834C30.7195 30.0588 31.2681 29.3411 31.2681 28.5262V27.3372H35.7377V37.7129ZM35.7377 25.5794H31.2681V22.5862H35.7377V25.5794ZM52.6678 37.7129H37.4955V36.0064H52.6678V37.7129ZM37.4955 34.2486C37.4955 33.1013 37.4955 24.9703 37.4955 23.8406H39.3061V34.2486H37.4955ZM41.0639 34.2486V23.8407H45.9073V34.2486H41.0639ZM52.6678 34.2486H47.6652V23.8407H52.6678V34.2486ZM52.6678 22.0828C51.8353 22.0828 37.8888 22.0828 37.4336 22.0828C37.2294 21.3486 36.5528 20.8284 35.784 20.8284H31.2682V19.0897H52.6678V22.0828ZM34.4629 17.3319V6.95621H39.3061V17.3319H34.4629ZM41.0639 17.3319V6.95621H45.9073V17.3319H41.0639ZM52.6678 17.3319H47.6652V6.95621H52.6678V17.3319ZM27.8617 2.20508H52.6678V5.19828C51.9942 5.19828 35.087 5.19828 27.8617 5.19828V2.20508ZM27.8617 6.95621H32.705V17.3319H31.2681V13.8291C31.2681 12.8198 30.447 11.9987 29.4376 11.9987H27.8617V6.95621ZM13.6192 13.7565C30.5142 13.7565 29.5103 13.7163 29.5103 13.8291V28.5261C29.5103 28.5663 29.4777 28.5989 29.4376 28.5989C28.55 28.5989 14.5064 28.5989 13.6192 28.5989C13.579 28.5989 13.5464 28.5663 13.5464 28.5261C13.5464 12.9206 13.502 13.7565 13.6192 13.7565ZM45.7876 44.7775C45.7876 44.6062 45.927 44.4669 46.0982 44.4669H50.8106C50.982 44.4669 51.1213 44.6062 51.1213 44.7775V48.5368H45.7875V44.7775H45.7876ZM33.4801 44.7775C33.4801 44.6062 33.6195 44.4669 33.7908 44.4669H38.5032C38.6745 44.4669 38.8138 44.6062 38.8138 44.7775V48.5368C37.6225 48.5368 34.6663 48.5368 33.48 48.5368L33.4801 44.7775ZM21.1729 44.7775C21.1729 44.6062 21.3122 44.4669 21.4834 44.4669H26.1959C26.3672 44.4669 26.5065 44.6062 26.5065 44.7775V48.5368H21.1727V44.7775H21.1729ZM8.86535 44.7775C8.86535 44.6062 9.00469 44.4669 9.17602 44.4669H13.8885C14.0597 44.4669 14.199 44.6062 14.199 44.7775V48.5368H8.86535V44.7775ZM58.2422 53.7941H1.75781V50.2946H58.2422V53.7941Z" fill="#263238"/>
<path d="M17.2149 27.1127H25.8453C26.6896 27.1127 27.3766 26.4257 27.3766 25.5813V19.6299C27.3766 18.7856 26.6896 18.0986 25.8453 18.0986H23.8595V17.5716C23.8595 16.2871 22.8146 15.2422 21.5301 15.2422C20.2456 15.2422 19.2006 16.2871 19.2006 17.5716V18.0986H17.2149C16.3705 18.0986 15.6836 18.7856 15.6836 19.6299V25.5813C15.6835 26.4256 16.3705 27.1127 17.2149 27.1127ZM20.9584 17.5715C20.9584 17.2564 21.2148 16.9999 21.5301 16.9999C21.8453 16.9999 22.1017 17.2563 22.1017 17.5715V18.0985H20.9584V17.5715ZM17.4413 19.8563H25.6189V25.3549H17.4414V19.8563H17.4413Z" fill="#263238"/>
</svg>
