<svg width="54" height="39" viewBox="0 0 54 39" fill="none" xmlns="http://www.w3.org/2000/svg">
<path fill-rule="evenodd" clip-rule="evenodd" d="M10.0497 13.9219C9.07469 13.6107 6.94187 13.1466 5.21406 14.3007C3.87625 15.1941 2.66969 17.101 2.66594 21.0619H1.75C1.2325 21.0619 0.8125 21.4819 0.8125 21.9994V37.9369C0.8125 38.4544 1.2325 38.8744 1.75 38.8744H3.625C4.37125 38.8744 5.08656 38.5782 5.61344 38.0504C6.14125 37.5235 6.4375 36.8082 6.4375 36.0619V32.7807H10.6562C11.5413 32.7807 12.3325 32.371 12.8472 31.7307C12.8959 31.6979 12.9419 31.6594 12.985 31.6163L23.3472 21.2541L40.0037 25.7175C40.5034 25.8516 41.0172 25.5544 41.1512 25.0547L41.5497 23.5697L44.8094 24.4425C46.3103 24.8447 47.8525 23.955 48.2537 22.4541L49.3009 18.5485L53.1709 14.9429C53.6716 14.476 53.8806 13.7738 53.7147 13.11C53.5497 12.4454 53.0369 11.9222 52.375 11.745L12.0672 0.917856C11.5872 0.788481 11.0753 0.855981 10.6441 1.10442C10.2128 1.35286 9.89875 1.76254 9.77031 2.24254L7.45 10.8994C7.31687 11.4 7.61312 11.9138 8.11281 12.0479L10.4219 12.6666L10.0497 13.9219ZM3.61937 22.9369H2.6875V36.9994H3.625C3.87344 36.9994 4.1125 36.901 4.28781 36.7247C4.46406 36.5494 4.5625 36.3104 4.5625 36.0619V23.8744C4.5625 23.626 4.46406 23.3869 4.28781 23.2116C4.1125 23.0363 3.87437 22.9369 3.62687 22.9369C3.62406 22.9369 3.62125 22.9369 3.61937 22.9369ZM6.4375 29.0307V30.9057H8.00406C7.9 30.6122 7.84375 30.2972 7.84375 29.9682C7.84375 29.6391 7.9 29.3241 8.00406 29.0307H6.4375ZM10.6562 29.0307C11.1737 29.0307 11.5938 29.4507 11.5938 29.9682C11.5938 30.4857 11.1737 30.9057 10.6562 30.9057C10.1388 30.9057 9.71875 30.4857 9.71875 29.9682C9.71875 29.4507 10.1388 29.0307 10.6562 29.0307ZM13.1941 28.756L21.2556 20.6944L19.165 20.1338L11.8684 27.4304C12.4478 27.7069 12.9175 28.1766 13.1941 28.756ZM9.52094 15.706C8.92094 15.4819 7.4425 15.0675 6.25469 15.8607C5.21313 16.5563 4.50531 18.1135 4.54 21.2147C4.94031 21.3525 5.30875 21.5804 5.61344 21.886C6.14125 22.4129 6.4375 23.1282 6.4375 23.8744V27.1557H9.49094L17.0734 19.5732L9.94469 17.6635C9.70094 17.5979 9.49281 17.4366 9.36906 17.2163C9.24625 16.995 9.21719 16.7344 9.28844 16.4916L9.52094 15.706ZM12.2331 13.1522L11.3594 16.1016L39.5828 23.6635L41.3397 17.1075L38.6209 16.3791L36.2519 19.051C36.0166 19.3163 35.6509 19.4269 35.3078 19.335L12.2331 13.1522ZM47.3162 18.7088L46.4434 21.9685C46.3094 22.4691 45.7947 22.7663 45.295 22.6322L42.0344 21.7585L43.1509 17.5922L47.3162 18.7088ZM48.2059 17.0063L51.8931 13.5713C51.895 13.5685 51.8959 13.5657 51.8959 13.5619C51.895 13.5591 51.8922 13.5563 51.8894 13.5554L11.5816 2.72817L9.50406 10.4794L10.6 10.7738C10.6103 10.7757 10.6206 10.7785 10.6309 10.7813L35.2337 17.3738L37.6028 14.701C37.8381 14.4357 38.2038 14.326 38.5469 14.4179L48.2059 17.0063ZM24.3016 9.00942C24.9616 9.18567 25.3534 9.86536 25.1772 10.5244C25 11.1844 24.3212 11.5763 23.6612 11.4C23.0012 11.2229 22.6094 10.5441 22.7866 9.88411C22.9628 9.22411 23.6416 8.83223 24.3016 9.00942ZM19.5203 7.72786C20.1803 7.90504 20.5722 8.58379 20.395 9.24379C20.2188 9.90286 19.5391 10.2957 18.88 10.1185C18.22 9.94223 17.8281 9.26254 18.0044 8.60254C18.1816 7.94348 18.8603 7.55067 19.5203 7.72786ZM14.7391 6.44629C15.3991 6.62348 15.7909 7.30223 15.6138 7.96223C15.4375 8.62223 14.7578 9.01411 14.0988 8.83786C13.4388 8.66067 13.0469 7.98192 13.2231 7.32192C13.4003 6.66192 14.0791 6.27004 14.7391 6.44629Z" fill="#263238"/>
</svg>
