<svg width="60" height="32" viewBox="0 0 60 32" fill="none" xmlns="http://www.w3.org/2000/svg">
<path d="M9.375 31.9375C8.26248 31.9375 7.17495 31.6076 6.24992 30.9895C5.32489 30.3714 4.60392 29.4929 4.17818 28.4651C3.75244 27.4373 3.64104 26.3063 3.85809 25.2151C4.07513 24.124 4.61086 23.1217 5.39753 22.335C6.1842 21.5484 7.18648 21.0126 8.27762 20.7956C9.36876 20.5785 10.4998 20.6899 11.5276 21.1157C12.5554 21.5414 13.4339 22.2624 14.052 23.1874C14.6701 24.1124 15 25.2 15 26.3125C14.9985 27.8039 14.4054 29.2338 13.3508 30.2883C12.2963 31.3429 10.8664 31.936 9.375 31.9375ZM9.375 22.5625C8.63332 22.5625 7.9083 22.7824 7.29161 23.1945C6.67493 23.6065 6.19428 24.1922 5.91045 24.8774C5.62663 25.5627 5.55236 26.3167 5.69706 27.0441C5.84175 27.7715 6.19891 28.4397 6.72335 28.9642C7.2478 29.4886 7.91599 29.8458 8.64341 29.9904C9.37084 30.1351 10.1248 30.0609 10.8101 29.7771C11.4953 29.4932 12.081 29.0126 12.493 28.3959C12.9051 27.7792 13.125 27.0542 13.125 26.3125C13.125 25.3179 12.7299 24.3641 12.0267 23.6609C11.3234 22.9576 10.3696 22.5625 9.375 22.5625Z" fill="#263238"/>
<path d="M9.375 29.125C8.81874 29.125 8.27497 28.96 7.81246 28.651C7.34995 28.342 6.98946 27.9027 6.77659 27.3888C6.56372 26.8749 6.50802 26.3094 6.61654 25.7638C6.72506 25.2182 6.99293 24.7171 7.38626 24.3238C7.7796 23.9304 8.28074 23.6626 8.82631 23.554C9.37188 23.4455 9.93738 23.5012 10.4513 23.7141C10.9652 23.927 11.4045 24.2874 11.7135 24.75C12.0226 25.2125 12.1875 25.7562 12.1875 26.3125C12.1875 27.0584 11.8912 27.7738 11.3637 28.3012C10.8363 28.8287 10.1209 29.125 9.375 29.125ZM9.375 25.375C9.18958 25.375 9.00832 25.43 8.85415 25.533C8.69998 25.636 8.57982 25.7824 8.50886 25.9537C8.43791 26.125 8.41934 26.3135 8.45551 26.4954C8.49169 26.6773 8.58098 26.8443 8.71209 26.9754C8.8432 27.1065 9.01025 27.1958 9.1921 27.232C9.37396 27.2682 9.56246 27.2496 9.73377 27.1786C9.90507 27.1077 10.0515 26.9875 10.1545 26.8333C10.2575 26.6792 10.3125 26.4979 10.3125 26.3125C10.3125 26.0639 10.2137 25.8254 10.0379 25.6496C9.8621 25.4738 9.62364 25.375 9.375 25.375Z" fill="#263238"/>
<path d="M50.625 31.9375C49.5125 31.9375 48.4249 31.6076 47.4999 30.9895C46.5749 30.3714 45.8539 29.4929 45.4282 28.4651C45.0024 27.4373 44.891 26.3063 45.1081 25.2151C45.3251 24.124 45.8609 23.1217 46.6475 22.335C47.4342 21.5484 48.4365 21.0126 49.5276 20.7956C50.6188 20.5785 51.7498 20.6899 52.7776 21.1157C53.8054 21.5414 54.6839 22.2624 55.302 23.1874C55.9201 24.1124 56.25 25.2 56.25 26.3125C56.2485 27.8039 55.6554 29.2338 54.6008 30.2883C53.5463 31.3429 52.1164 31.936 50.625 31.9375ZM50.625 22.5625C49.8833 22.5625 49.1583 22.7824 48.5416 23.1945C47.9249 23.6065 47.4443 24.1922 47.1605 24.8774C46.8766 25.5627 46.8024 26.3167 46.9471 27.0441C47.0918 27.7715 47.4489 28.4397 47.9734 28.9642C48.4978 29.4886 49.166 29.8458 49.8934 29.9904C50.6208 30.1351 51.3748 30.0609 52.0601 29.7771C52.7453 29.4932 53.331 29.0126 53.743 28.3959C54.1551 27.7792 54.375 27.0542 54.375 26.3125C54.375 25.3179 53.9799 24.3641 53.2767 23.6609C52.5734 22.9576 51.6196 22.5625 50.625 22.5625Z" fill="#263238"/>
<path d="M50.625 29.125C50.0687 29.125 49.525 28.96 49.0625 28.651C48.5999 28.342 48.2395 27.9027 48.0266 27.3888C47.8137 26.8749 47.758 26.3094 47.8665 25.7638C47.9751 25.2182 48.2429 24.7171 48.6363 24.3238C49.0296 23.9304 49.5307 23.6626 50.0763 23.554C50.6219 23.4455 51.1874 23.5012 51.7013 23.7141C52.2152 23.927 52.6545 24.2874 52.9635 24.75C53.2725 25.2125 53.4375 25.7562 53.4375 26.3125C53.4375 27.0584 53.1412 27.7738 52.6137 28.3012C52.0863 28.8287 51.3709 29.125 50.625 29.125ZM50.625 25.375C50.4396 25.375 50.2583 25.43 50.1042 25.533C49.95 25.636 49.8298 25.7824 49.7589 25.9537C49.6879 26.125 49.6693 26.3135 49.7055 26.4954C49.7417 26.6773 49.831 26.8443 49.9621 26.9754C50.0932 27.1065 50.2602 27.1958 50.4421 27.232C50.624 27.2682 50.8125 27.2496 50.9838 27.1786C51.1551 27.1077 51.3015 26.9875 51.4045 26.8333C51.5075 26.6792 51.5625 26.4979 51.5625 26.3125C51.5625 26.0639 51.4637 25.8254 51.2879 25.6496C51.1121 25.4738 50.8736 25.375 50.625 25.375Z" fill="#263238"/>
<path d="M53.4375 21.625H59.0625V23.5H53.4375V21.625Z" fill="#263238"/>
<path d="M0.9375 21.625H6.5625V23.5H0.9375V21.625Z" fill="#263238"/>
<path d="M14.0625 25.375H45.9375V27.25H14.0625V25.375Z" fill="#263238"/>
<path d="M59.0625 27.25H55.3125V25.375H58.125V18.8706L56.3597 4.75H2.8125C2.56386 4.75 2.3254 4.84877 2.14959 5.02459C1.97377 5.2004 1.875 5.43886 1.875 5.6875V25.375H4.6875V27.25H0.9375C0.68886 27.25 0.450403 27.1512 0.274587 26.9754C0.0987721 26.7996 0 26.5611 0 26.3125V5.6875C0 4.94158 0.296316 4.22621 0.823762 3.69876C1.35121 3.17132 2.06658 2.875 2.8125 2.875H57.1875C57.416 2.87506 57.6365 2.95855 57.8078 3.10978C57.979 3.261 58.0892 3.46955 58.1175 3.69625L59.9925 18.6962C59.9974 18.7348 59.9999 18.7736 60 18.8125V26.3125C60 26.5611 59.9012 26.7996 59.7254 26.9754C59.5496 27.1512 59.3111 27.25 59.0625 27.25Z" fill="#263238"/>
<path d="M36.5625 27.25H23.4375C23.1889 27.25 22.9504 27.1512 22.7746 26.9754C22.5988 26.7996 22.5 26.5611 22.5 26.3125V9.4375C22.5 8.69158 22.7963 7.97621 23.3238 7.44876C23.8512 6.92132 24.5666 6.625 25.3125 6.625H34.6875C35.4334 6.625 36.1488 6.92132 36.6762 7.44876C37.2037 7.97621 37.5 8.69158 37.5 9.4375V26.3125C37.5 26.5611 37.4012 26.7996 37.2254 26.9754C37.0496 27.1512 36.8111 27.25 36.5625 27.25ZM24.375 25.375H35.625V9.4375C35.625 9.18886 35.5262 8.9504 35.3504 8.77459C35.1746 8.59877 34.9361 8.5 34.6875 8.5H25.3125C25.0639 8.5 24.8254 8.59877 24.6496 8.77459C24.4738 8.9504 24.375 9.18886 24.375 9.4375V25.375Z" fill="#263238"/>
<path d="M29.0625 7.5625H30.9375V23.5H29.0625V7.5625Z" fill="#263238"/>
<path d="M23.4375 22.5625H36.5625V24.4375H23.4375V22.5625Z" fill="#263238"/>
<path d="M59.0625 16H40.3125C40.0639 16 39.8254 15.9012 39.6496 15.7254C39.4738 15.5496 39.375 15.3111 39.375 15.0625V7.5625C39.375 7.31386 39.4738 7.0754 39.6496 6.89959C39.8254 6.72377 40.0639 6.625 40.3125 6.625H58.125V8.5H41.25V14.125H59.0625V16Z" fill="#263238"/>
<path d="M47.8125 7.5625H49.6875V15.0625H47.8125V7.5625Z" fill="#263238"/>
<path d="M19.6875 16H0.9375V14.125H18.75V8.5H0.9375V6.625H19.6875C19.9361 6.625 20.1746 6.72377 20.3504 6.89959C20.5262 7.0754 20.625 7.31386 20.625 7.5625V15.0625C20.625 15.3111 20.5262 15.5496 20.3504 15.7254C20.1746 15.9012 19.9361 16 19.6875 16Z" fill="#263238"/>
<path d="M9.375 7.5625H11.25V15.0625H9.375V7.5625Z" fill="#263238"/>
<path d="M56.25 22.5625H54.375V20.6875C54.375 19.9416 54.6713 19.2262 55.1988 18.6988C55.7262 18.1713 56.4416 17.875 57.1875 17.875H59.0625V19.75H57.1875C56.9389 19.75 56.7004 19.8488 56.5246 20.0246C56.3488 20.2004 56.25 20.4389 56.25 20.6875V22.5625Z" fill="#263238"/>
<path d="M13.125 22.5625H21.5625V24.4375H13.125V22.5625Z" fill="#263238"/>
<path d="M38.4375 22.5625H46.875V24.4375H38.4375V22.5625Z" fill="#263238"/>
<path d="M46.875 3.8125H45V2.875C45 2.62636 44.9012 2.3879 44.7254 2.21209C44.5496 2.03627 44.3111 1.9375 44.0625 1.9375H29.0625C28.8139 1.9375 28.5754 2.03627 28.3996 2.21209C28.2238 2.3879 28.125 2.62636 28.125 2.875V3.8125H26.25V2.875C26.25 2.12908 26.5463 1.41371 27.0738 0.886262C27.6012 0.358816 28.3166 0.0625 29.0625 0.0625H44.0625C44.8084 0.0625 45.5238 0.358816 46.0512 0.886262C46.5787 1.41371 46.875 2.12908 46.875 2.875V3.8125Z" fill="#263238"/>
<path d="M24.375 3.8125H22.5V2.875C22.5 2.62636 22.4012 2.3879 22.2254 2.21209C22.0496 2.03627 21.8111 1.9375 21.5625 1.9375H15.9375C15.6889 1.9375 15.4504 2.03627 15.2746 2.21209C15.0988 2.3879 15 2.62636 15 2.875V3.8125H13.125V2.875C13.125 2.12908 13.4213 1.41371 13.9488 0.886262C14.4762 0.358816 15.1916 0.0625 15.9375 0.0625H21.5625C22.3084 0.0625 23.0238 0.358816 23.5512 0.886262C24.0787 1.41371 24.375 2.12908 24.375 2.875V3.8125Z" fill="#263238"/>
</svg>
