<svg width="60" height="60" viewBox="0 0 60 60" fill="none" xmlns="http://www.w3.org/2000/svg">
<g clip-path="url(#clip0_366_4280)">
<path d="M57.1875 57.1875V43.125C57.1875 42.8764 57.0887 42.6379 56.9129 42.4621C56.7371 42.2863 56.4986 42.1875 56.25 42.1875H55.3125V5.625C55.3125 5.37636 55.2137 5.1379 55.0379 4.96209C54.8621 4.78627 54.6236 4.6875 54.375 4.6875H51.5625V1.875C51.5625 1.62636 51.4637 1.3879 51.2879 1.21209C51.1121 1.03627 50.8736 0.9375 50.625 0.9375H39.375C39.1264 0.9375 38.8879 1.03627 38.7121 1.21209C38.5363 1.3879 38.4375 1.62636 38.4375 1.875V4.6875H35.625C35.3764 4.6875 35.1379 4.78627 34.9621 4.96209C34.7863 5.1379 34.6875 5.37636 34.6875 5.625V21.5625H28.125C27.8764 21.5625 27.6379 21.6613 27.4621 21.8371C27.2863 22.0129 27.1875 22.2514 27.1875 22.5V39.375H25.3125V21.5625C25.3125 21.3139 25.2137 21.0754 25.0379 20.8996C24.8621 20.7238 24.6236 20.625 24.375 20.625H21.5063C21.2966 18.9736 20.5434 17.4389 19.3655 16.2626C18.1875 15.0864 16.6517 14.3354 15 14.1281V10.3125H13.125V14.1281C11.4733 14.3354 9.93748 15.0864 8.75953 16.2626C7.58158 17.4389 6.82844 18.9736 6.61875 20.625H3.75C3.50136 20.625 3.2629 20.7238 3.08709 20.8996C2.91127 21.0754 2.8125 21.3139 2.8125 21.5625V57.1875H0.9375V59.0625H59.0625V57.1875H57.1875ZM42.1875 10.3125V21.5625H40.3125V10.3125H42.1875ZM44.0625 22.5V10.3125H45.9375V42.1875H44.0625V22.5ZM47.8125 42.1875V10.3125H49.6875V42.1875H47.8125ZM55.3125 44.0625V57.1875H39.375V44.0625H55.3125ZM51.5625 42.1875V10.3125H53.4375V42.1875H51.5625ZM39.375 6.5625C39.6236 6.5625 39.8621 6.46373 40.0379 6.28791C40.2137 6.1121 40.3125 5.87364 40.3125 5.625V2.8125H49.6875V5.625C49.6875 5.87364 49.7863 6.1121 49.9621 6.28791C50.1379 6.46373 50.3764 6.5625 50.625 6.5625H53.4375V8.4375H36.5625V6.5625H39.375ZM36.5625 10.3125H38.4375V21.5625H36.5625V10.3125ZM29.0625 23.4375H42.1875V42.1875H38.4375C38.1889 42.1875 37.9504 42.2863 37.7746 42.4621C37.5988 42.6379 37.5 42.8764 37.5 43.125V57.1875H33.75V40.3125C33.75 40.0639 33.6512 39.8254 33.4754 39.6496C33.2996 39.4738 33.0611 39.375 32.8125 39.375H29.0625V23.4375ZM31.875 57.1875H16.875V41.25H31.875V57.1875ZM14.0625 15.9375C15.5543 15.9375 16.9851 16.5301 18.04 17.585C19.0949 18.6399 19.6875 20.0707 19.6875 21.5625C19.6875 21.8111 19.7863 22.0496 19.9621 22.2254C20.1379 22.4012 20.3764 22.5 20.625 22.5H23.4375V33.75H22.0312C21.6583 33.75 21.3006 33.6018 21.0369 33.3381C20.7732 33.0744 20.625 32.7167 20.625 32.3438C20.625 31.4735 20.2793 30.6389 19.6639 30.0236C19.0486 29.4082 18.214 29.0625 17.3438 29.0625H14.5312C14.1583 29.0625 13.8006 28.9143 13.5369 28.6506C13.2732 28.3869 13.125 28.0292 13.125 27.6562C13.125 26.786 12.7793 25.9514 12.1639 25.3361C11.5486 24.7207 10.714 24.375 9.84375 24.375C9.47079 24.375 9.1131 24.2268 8.84938 23.9631C8.58566 23.6994 8.4375 23.3417 8.4375 22.9688V21.5625C8.4375 20.0707 9.03013 18.6399 10.085 17.585C11.1399 16.5301 12.5707 15.9375 14.0625 15.9375ZM4.6875 22.5H6.5625V22.9688C6.5625 23.839 6.9082 24.6736 7.52356 25.2889C8.13891 25.9043 8.97351 26.25 9.84375 26.25C10.2167 26.25 10.5744 26.3982 10.8381 26.6619C11.1018 26.9256 11.25 27.2833 11.25 27.6562C11.25 28.5265 11.5957 29.3611 12.2111 29.9764C12.8264 30.5918 13.661 30.9375 14.5312 30.9375H17.3438C17.6336 30.9397 17.9157 31.0307 18.1521 31.1984C18.3885 31.366 18.5677 31.6022 18.6656 31.875H15.9375C15.6889 31.875 15.4504 31.9738 15.2746 32.1496C15.0988 32.3254 15 32.5639 15 32.8125V36.5625C15 36.8111 15.0988 37.0496 15.2746 37.2254C15.4504 37.4012 15.6889 37.5 15.9375 37.5H19.6875C19.9361 37.5 20.1746 37.4012 20.3504 37.2254C20.5262 37.0496 20.625 36.8111 20.625 36.5625V35.2969C21.063 35.5108 21.5438 35.623 22.0312 35.625H23.4375V39.375H15.9375C15.6889 39.375 15.4504 39.4738 15.2746 39.6496C15.0988 39.8254 15 40.0639 15 40.3125V57.1875H4.6875V22.5ZM18.75 33.75V35.625H16.875V33.75H18.75Z" fill="#263238"/>
<path d="M12.1875 31.875H8.4375C8.18886 31.875 7.9504 31.9738 7.77459 32.1496C7.59877 32.3254 7.5 32.5639 7.5 32.8125V36.5625C7.5 36.8111 7.59877 37.0496 7.77459 37.2254C7.9504 37.4012 8.18886 37.5 8.4375 37.5H12.1875C12.4361 37.5 12.6746 37.4012 12.8504 37.2254C13.0262 37.0496 13.125 36.8111 13.125 36.5625V32.8125C13.125 32.5639 13.0262 32.3254 12.8504 32.1496C12.6746 31.9738 12.4361 31.875 12.1875 31.875ZM11.25 35.625H9.375V33.75H11.25V35.625Z" fill="#263238"/>
<path d="M12.1875 39.375H8.4375C8.18886 39.375 7.9504 39.4738 7.77459 39.6496C7.59877 39.8254 7.5 40.0639 7.5 40.3125V44.0625C7.5 44.3111 7.59877 44.5496 7.77459 44.7254C7.9504 44.9012 8.18886 45 8.4375 45H12.1875C12.4361 45 12.6746 44.9012 12.8504 44.7254C13.0262 44.5496 13.125 44.3111 13.125 44.0625V40.3125C13.125 40.0639 13.0262 39.8254 12.8504 39.6496C12.6746 39.4738 12.4361 39.375 12.1875 39.375ZM11.25 43.125H9.375V41.25H11.25V43.125Z" fill="#263238"/>
<path d="M12.1875 46.875H8.4375C8.18886 46.875 7.9504 46.9738 7.77459 47.1496C7.59877 47.3254 7.5 47.5639 7.5 47.8125V51.5625C7.5 51.8111 7.59877 52.0496 7.77459 52.2254C7.9504 52.4012 8.18886 52.5 8.4375 52.5H12.1875C12.4361 52.5 12.6746 52.4012 12.8504 52.2254C13.0262 52.0496 13.125 51.8111 13.125 51.5625V47.8125C13.125 47.5639 13.0262 47.3254 12.8504 47.1496C12.6746 46.9738 12.4361 46.875 12.1875 46.875ZM11.25 50.625H9.375V48.75H11.25V50.625Z" fill="#263238"/>
<path d="M21.5625 43.125H19.6875V46.875H21.5625V43.125Z" fill="#263238"/>
<path d="M25.3125 43.125H23.4375V46.875H25.3125V43.125Z" fill="#263238"/>
<path d="M29.0625 43.125H27.1875V46.875H29.0625V43.125Z" fill="#263238"/>
<path d="M21.5625 48.75H19.6875V52.5H21.5625V48.75Z" fill="#263238"/>
<path d="M25.3125 48.75H23.4375V52.5H25.3125V48.75Z" fill="#263238"/>
<path d="M29.0625 48.75H27.1875V52.5H29.0625V48.75Z" fill="#263238"/>
<path d="M53.4375 45.9375H41.25V47.8125H53.4375V45.9375Z" fill="#263238"/>
<path d="M53.4375 49.6875H41.25V51.5625H53.4375V49.6875Z" fill="#263238"/>
<path d="M53.4375 53.4375H41.25V55.3125H53.4375V53.4375Z" fill="#263238"/>
<path d="M40.3125 25.3125H30.9375V27.1875H40.3125V25.3125Z" fill="#263238"/>
<path d="M40.3125 29.0625H30.9375V30.9375H40.3125V29.0625Z" fill="#263238"/>
<path d="M40.3125 32.8125H30.9375V34.6875H40.3125V32.8125Z" fill="#263238"/>
<path d="M40.3125 36.5625H30.9375V38.4375H40.3125V36.5625Z" fill="#263238"/>
<path d="M25.3125 16.875C25.8688 16.875 26.4125 16.7101 26.875 16.401C27.3376 16.092 27.698 15.6527 27.9109 15.1388C28.1238 14.6249 28.1795 14.0594 28.071 13.5138C27.9624 12.9682 27.6946 12.4671 27.3012 12.0738C26.9079 11.6804 26.4068 11.4126 25.8612 11.304C25.3156 11.1955 24.7501 11.2512 24.2362 11.4641C23.7223 11.677 23.283 12.0374 22.974 12.5C22.6649 12.9625 22.5 13.5062 22.5 14.0625C22.5 14.8084 22.7963 15.5238 23.3238 16.0512C23.8512 16.5787 24.5666 16.875 25.3125 16.875ZM25.3125 13.125C25.4979 13.125 25.6792 13.18 25.8333 13.283C25.9875 13.386 26.1077 13.5324 26.1786 13.7037C26.2496 13.875 26.2682 14.0635 26.232 14.2454C26.1958 14.4273 26.1065 14.5943 25.9754 14.7254C25.8443 14.8565 25.6773 14.9458 25.4954 14.982C25.3135 15.0182 25.125 14.9996 24.9537 14.9286C24.7824 14.8577 24.636 14.7375 24.533 14.5833C24.43 14.4292 24.375 14.2479 24.375 14.0625C24.375 13.8139 24.4738 13.5754 24.6496 13.3996C24.8254 13.2238 25.0639 13.125 25.3125 13.125Z" fill="#263238"/>
<path d="M6.5625 9.375C7.11876 9.375 7.66253 9.21005 8.12504 8.90101C8.58755 8.59197 8.94804 8.15272 9.16091 7.6388C9.37378 7.12488 9.42948 6.55938 9.32096 6.01381C9.21244 5.46824 8.94457 4.9671 8.55124 4.57376C8.1579 4.18043 7.65676 3.91256 7.11119 3.80404C6.56562 3.69552 6.00012 3.75122 5.4862 3.96409C4.97229 4.17696 4.53303 4.53745 4.22399 4.99996C3.91495 5.46247 3.75 6.00624 3.75 6.5625C3.75 7.30842 4.04632 8.02379 4.57376 8.55124C5.10121 9.07869 5.81658 9.375 6.5625 9.375ZM6.5625 5.625C6.74792 5.625 6.92918 5.67998 7.08335 5.783C7.23752 5.88601 7.35768 6.03243 7.42864 6.20374C7.49959 6.37504 7.51816 6.56354 7.48199 6.7454C7.44581 6.92726 7.35652 7.0943 7.22541 7.22541C7.0943 7.35653 6.92725 7.44581 6.7454 7.48199C6.56354 7.51816 6.37504 7.4996 6.20373 7.42864C6.03243 7.35768 5.88601 7.23752 5.783 7.08335C5.67998 6.92918 5.625 6.74792 5.625 6.5625C5.625 6.31386 5.72377 6.0754 5.89959 5.89959C6.0754 5.72377 6.31386 5.625 6.5625 5.625Z" fill="#263238"/>
</g>
<defs>
<clipPath id="clip0_366_4280">
<rect width="60" height="60" fill="white"/>
</clipPath>
</defs>
</svg>
