<svg width="32" height="32" viewBox="0 0 32 32" fill="none" xmlns="http://www.w3.org/2000/svg">
<path d="M16 0.0625C12.8479 0.0625 9.76651 0.997218 7.14561 2.74845C4.5247 4.49969 2.48195 6.98879 1.27568 9.90098C0.0694052 12.8132 -0.24621 16.0177 0.368742 19.1093C0.983694 22.2008 2.50159 25.0406 4.73049 27.2695C6.95939 29.4984 9.79918 31.0163 12.8908 31.6313C15.9823 32.2462 19.1868 31.9306 22.099 30.7243C25.0112 29.5181 27.5003 27.4753 29.2516 24.8544C31.0028 22.2335 31.9375 19.1521 31.9375 16C31.9325 11.7746 30.2518 7.72375 27.264 4.73597C24.2763 1.74818 20.2254 0.0674623 16 0.0625ZM16 30.0625C13.2187 30.0625 10.4999 29.2377 8.1873 27.6925C5.87473 26.1473 4.07231 23.9511 3.00795 21.3815C1.94359 18.8119 1.66511 15.9844 2.20771 13.2565C2.75032 10.5287 4.08964 8.02299 6.05632 6.05631C8.02299 4.08963 10.5287 2.75031 13.2565 2.20771C15.9844 1.6651 18.8119 1.94359 21.3815 3.00794C23.9511 4.0723 26.1473 5.87473 27.6925 8.18729C29.2378 10.4999 30.0625 13.2187 30.0625 16C30.0584 19.7283 28.5755 23.3028 25.9391 25.9391C23.3028 28.5755 19.7283 30.0584 16 30.0625ZM25.6875 16C25.6875 16.2486 25.5887 16.4871 25.4129 16.6629C25.2371 16.8387 24.9986 16.9375 24.75 16.9375H16C15.7514 16.9375 15.5129 16.8387 15.3371 16.6629C15.1613 16.4871 15.0625 16.2486 15.0625 16V7.25C15.0625 7.00136 15.1613 6.7629 15.3371 6.58709C15.5129 6.41127 15.7514 6.3125 16 6.3125C16.2486 6.3125 16.4871 6.41127 16.6629 6.58709C16.8387 6.7629 16.9375 7.00136 16.9375 7.25V15.0625H24.75C24.9986 15.0625 25.2371 15.1613 25.4129 15.3371C25.5887 15.5129 25.6875 15.7514 25.6875 16Z" fill="#EFA35A"/>
</svg>
