<svg width="31" height="31" viewBox="0 0 31 31" fill="none" xmlns="http://www.w3.org/2000/svg">
<path d="M29.6235 21.0477L22.2422 17.7399C21.9078 17.5966 21.5429 17.539 21.1806 17.5723C20.8182 17.6055 20.4699 17.7287 20.1672 17.9305C20.1365 17.9502 20.1072 17.9722 20.0797 17.9961L16.2219 21.2774C16.1819 21.2992 16.1373 21.3114 16.0917 21.313C16.0462 21.3147 16.0009 21.3057 15.9594 21.2868C13.4797 20.0899 10.911 17.5368 9.70939 15.0914C9.68938 15.0506 9.67898 15.0057 9.67898 14.9602C9.67898 14.9147 9.68938 14.8698 9.70939 14.8289L13.0016 10.9227C13.0252 10.8938 13.0471 10.8635 13.0672 10.8321C13.2662 10.5282 13.3865 10.1795 13.417 9.81749C13.4476 9.4555 13.3875 9.0916 13.2422 8.75863L9.95783 1.38988C9.77131 0.954899 9.44875 0.592138 9.03855 0.356049C8.62835 0.119959 8.15265 0.0232756 7.68283 0.0805094C5.64099 0.348941 3.76676 1.35166 2.41037 2.90129C1.05397 4.45092 0.308238 6.44142 0.312518 8.50082C0.312518 20.7352 10.2656 30.6883 22.5 30.6883C24.5593 30.6923 26.5496 29.9464 28.0992 28.5901C29.6488 27.2338 30.6516 25.3597 30.9203 23.318C30.9774 22.8504 30.8821 22.3768 30.6484 21.9678C30.4147 21.5587 30.0553 21.236 29.6235 21.0477ZM22.5 28.8133C11.3 28.8133 2.18752 19.7008 2.18752 8.50082C2.18229 6.89759 2.76096 5.34729 3.8154 4.13959C4.86984 2.93188 6.32792 2.1494 7.91721 1.93832H7.95314C8.01611 1.9395 8.07725 1.95967 8.12855 1.9962C8.17986 2.03272 8.21893 2.0839 8.24064 2.14301L11.5375 9.50395C11.5563 9.54487 11.5661 9.58938 11.5661 9.63441C11.5661 9.67945 11.5563 9.72396 11.5375 9.76488L8.23908 13.6805C8.21447 13.7085 8.19201 13.7382 8.17189 13.7696C7.9655 14.0847 7.84396 14.4477 7.81905 14.8236C7.79413 15.1994 7.8667 15.5753 8.02971 15.9149C9.41564 18.7524 12.275 21.5899 15.1438 22.9758C15.4853 23.1379 15.8631 23.2087 16.2401 23.1814C16.6172 23.154 16.9808 23.0293 17.2953 22.8196C17.325 22.7993 17.3547 22.7774 17.3828 22.7539L21.2391 19.4727C21.2772 19.4522 21.3192 19.4402 21.3624 19.4375C21.4055 19.4348 21.4487 19.4415 21.4891 19.4571L28.8719 22.7649C28.9322 22.7906 28.9829 22.8346 29.0168 22.8906C29.0508 22.9467 29.0662 23.012 29.061 23.0774C28.851 24.6674 28.0692 26.1266 26.8618 27.1822C25.6543 28.2378 24.1038 28.8176 22.5 28.8133Z" fill="#EFA35A"/>
</svg>
