<svg width="23" height="22" viewBox="0 0 23 22" fill="none" xmlns="http://www.w3.org/2000/svg">
<path d="M22.5701 21.6744V13.4872C22.5701 9.10109 20.2286 7.05922 17.1068 7.05922C14.5868 7.05922 13.459 8.44578 12.829 9.4175V7.39531H8.08287C8.14615 8.73547 8.08287 21.6744 8.08287 21.6744H12.829V13.6995C12.829 13.2734 12.8599 12.8473 12.9851 12.5422C13.3282 11.69 14.1086 10.8069 15.4193 10.8069C17.1377 10.8069 17.824 12.1161 17.824 14.0356V21.6758L22.5701 21.6744ZM3.08365 5.44625C4.7388 5.44625 5.76958 4.34938 5.76958 2.97828C5.73865 1.57766 4.7388 0.511719 3.11599 0.511719C1.49318 0.511719 0.430054 1.57766 0.430054 2.97828C0.430054 4.34938 1.46084 5.44625 3.05412 5.44625H3.08365ZM5.45599 21.6744V7.39531H0.709897V21.6744H5.45599Z" fill="#EFA359"/>
</svg>
