<svg width="65" height="56" viewBox="0 0 65 56" fill="none" xmlns="http://www.w3.org/2000/svg">
<path fill-rule="evenodd" clip-rule="evenodd" d="M0.067627 20.2592L0.0778355 20.2711C0.253932 20.1755 0.40706 19.9619 0.551574 19.823C0.882713 19.5042 1.57721 18.872 1.85763 18.5749C2.11603 18.3013 2.44111 18.0287 2.67144 17.7936L3.13752 17.3285C3.18792 17.2791 3.21887 17.2633 3.26672 17.2178C3.31553 17.1713 3.2814 17.2005 3.31681 17.162C3.35987 17.1151 3.31968 17.1527 3.37008 17.1091C3.47536 17.0183 3.49609 16.9795 3.59563 16.8832L5.00089 15.5222C5.09405 15.4405 5.14477 15.3834 5.23122 15.2996L7.45795 13.1637C7.51123 13.1127 7.50166 13.1066 7.56132 13.055L8.26857 12.3791C8.49093 12.1549 8.72285 11.9012 8.97073 11.6981L9.42214 11.2452C9.51178 11.1551 9.58356 11.1118 9.6748 11.0191L10.2557 10.4555C10.2848 10.4279 10.3176 10.3875 10.3607 10.3487L10.828 9.88488C10.9135 9.8018 10.9802 9.76011 11.0673 9.6719L12.9262 7.86056C12.9741 7.81405 13.0079 7.7932 13.0522 7.74605C13.3116 7.47116 13.6303 7.20461 13.866 6.96468L14.7899 6.05404C14.8728 5.97353 14.9414 5.91547 15.0139 5.83047C15.1606 5.89269 17.3691 8.22847 17.6748 8.54057C18.1192 8.99413 18.547 9.43838 19.0041 9.89771L20.3076 11.2545C20.5111 11.4961 20.7571 11.7132 20.9801 11.9384L22.2909 13.2875C23.1864 14.1834 24.0257 15.1091 24.919 16.0063C25.1413 16.2295 25.3634 16.4525 25.5829 16.6722C25.7076 16.7973 25.7909 16.9095 25.9143 17.0324C26.0314 17.1482 26.1284 17.2521 26.2467 17.3653C26.4748 17.5831 26.7052 17.8183 26.8982 18.0437C27.0896 18.267 27.3378 18.4909 27.5588 18.7129C27.7889 18.9441 27.9812 19.1629 28.2093 19.3925C28.5507 19.7354 29.2522 20.4956 29.5361 20.7526C29.7741 20.9684 29.9843 21.202 30.1863 21.4326C30.3445 21.6129 30.5298 21.7569 30.6932 21.9359C30.7525 22.001 30.7822 22.0395 30.8457 22.103C31.0371 22.2948 31.6314 22.9559 31.8426 23.1275C31.9453 23.2109 32.3138 23.1695 32.4701 23.1695H37.8018C38.495 23.1695 39.8531 23.2077 40.463 23.1644L42.158 21.0355C42.3034 20.8456 42.4409 20.6881 42.5823 20.5017L43.4315 19.4355C43.5683 19.2575 43.7027 19.1096 43.8475 18.9207L51.0407 9.90926C51.1265 9.79892 51.1705 9.74503 51.2554 9.64527C51.7371 9.08041 52.2606 8.38789 52.7314 7.79545C52.8769 7.61261 53.0039 7.45448 53.1561 7.26202L53.7957 6.46493C53.8534 6.39276 53.9204 6.27376 54.0101 6.21634C54.2382 6.43799 55.126 7.70114 55.3684 8.00811C55.8342 8.59831 56.2492 9.2023 56.7067 9.78288C57.3996 10.6618 58.0389 11.5631 58.7162 12.4571L61.3918 16.0082C61.75 16.4913 64.6729 20.3157 64.7118 20.4549L64.7568 20.4395C64.5657 20.0139 64.3331 19.5808 64.1222 19.1571L55.8096 2.55005C55.5024 1.93162 54.7751 0.537274 54.5473 0L19.4453 4.32065L18.2388 3.22653C18.1846 3.17553 18.1322 3.14506 18.0786 3.09277L16.7448 1.87356C16.5075 1.68175 16.2424 1.4014 16.0098 1.19997L15.7182 0.932772C15.6564 0.881771 15.6171 0.852261 15.5581 0.799336L14.9746 0.265911C14.906 0.193739 14.7551 0.0410574 14.6703 0.0144342L13.2924 1.90692C13.1422 2.11157 12.9776 2.33065 12.8353 2.54075L11.9213 3.80839C11.6064 4.22666 11.312 4.65295 11.0083 5.07828C10.3929 5.93985 9.78709 6.76163 9.17841 7.61261C8.8696 8.04436 8.54899 8.45493 8.26283 8.87865C7.72178 9.67959 7.01229 10.5723 6.44476 11.3982C5.92955 12.1475 5.15466 13.1919 4.61616 13.9345C3.40549 15.6037 2.13102 17.3365 0.954811 19.0012C0.827842 19.1808 0.0934673 20.1572 0.067627 20.2592Z" fill="#17170A"/>
<path fill-rule="evenodd" clip-rule="evenodd" d="M59.7841 38.1618C59.6619 37.8513 58.9578 35.928 58.8784 35.8154L56.1403 35.8202L56.1339 35.972L56.9952 35.9797C57.022 36.1975 57.001 41.3453 57.0013 41.8342C57.0016 42.1726 57.0236 42.4302 56.8236 42.6361C56.5566 42.911 56.2921 42.8205 56.1333 42.901L56.1313 43.0335C56.4213 43.039 57.9338 43.0839 58.078 43.0078L58.0754 42.8882C57.3781 42.8167 57.1726 42.6813 57.1733 41.941L57.1717 36.4271C57.3037 36.6558 58.3594 39.527 58.4892 39.865C58.709 40.4379 58.9218 41.0069 59.1409 41.584C59.356 42.1498 59.5981 42.7416 59.7876 43.3039L59.9506 43.2956C60.1608 42.7496 60.3513 42.1232 60.5347 41.5667C60.7242 40.9925 60.9223 40.427 61.1121 39.8532L62.2648 36.447L62.296 42.8815C62.1123 42.8863 61.5428 42.8532 61.4085 42.9007L61.4056 43.0078C61.5023 43.0617 64.6475 43.0489 64.9952 43.0322L64.978 42.884H64.108V35.9761L64.9828 35.972L64.9802 35.8154H62.319C62.2284 35.9643 61.6203 37.8295 61.5049 38.1676C61.4005 38.4729 60.7746 40.4321 60.6949 40.521C60.6189 40.4251 59.9015 38.4601 59.7841 38.1618Z" fill="#17180A"/>
<path fill-rule="evenodd" clip-rule="evenodd" d="M4.96307 35.9681C5.19212 35.9568 6.54634 35.9408 6.66151 35.9851C6.76391 36.0354 7.09473 36.9499 7.16236 37.1141C7.32315 37.5048 7.47532 37.8942 7.64344 38.2846C7.75797 38.5511 7.64918 38.6759 7.55986 38.9226C7.46032 39.1975 6.95724 40.663 6.87142 40.7083L5.90703 38.3497C5.78039 38.0437 4.95381 36.1182 4.96307 35.9681ZM10.6904 40.6335L10.6451 40.7204C10.5688 40.69 10.5829 40.7063 10.5427 40.613C10.505 40.3548 8.68471 36.2128 8.67897 35.9693C8.87644 35.9549 9.24235 36.0104 9.38814 35.9434C9.38495 35.7823 9.41494 35.8205 9.02031 35.8221C8.03041 35.826 2.31364 35.7817 2.08203 35.8398C2.09511 35.9825 2.08299 35.9697 2.25334 35.9687C2.96315 35.9632 2.9405 35.8798 3.07194 36.2118L3.35905 36.9105C3.48794 37.2264 3.61267 37.5254 3.73677 37.8371C3.98528 38.4591 4.24081 39.0663 4.49443 39.6892L5.83239 42.9584C5.86524 43.0379 5.89236 43.1079 5.92522 43.1874C5.96701 43.2891 5.98073 43.3122 6.1179 43.2881C6.19989 43.1691 7.2284 40.265 7.37866 39.8618C7.44788 39.6757 7.72447 38.843 7.80008 38.7452C7.94363 38.8533 9.52595 43.0883 9.70843 43.2946C9.89761 43.3045 9.87017 43.2217 9.99331 42.8952C10.683 41.0685 11.3549 39.1564 12.0325 37.3143C12.169 36.9428 12.2561 36.6247 12.4816 36.3783C12.8533 35.9725 13.2827 36.0175 13.4218 35.944L13.4157 35.8359C13.2476 35.7977 11.6063 35.8045 11.4729 35.8404C11.4962 36.1191 11.708 35.8516 11.9798 36.2176C12.1345 36.4261 12.1345 36.6227 12.0366 36.8902C11.8803 37.3172 11.7355 37.7085 11.5782 38.138C11.4767 38.4151 10.675 40.5344 10.6904 40.6335Z" fill="#EFA35A"/>
<path fill-rule="evenodd" clip-rule="evenodd" d="M37.3833 42.8724L37.384 35.9805C37.665 35.943 38.4568 35.9632 38.7009 36.0475C39.0314 36.1621 39.3079 36.4347 39.4496 36.7109C39.6853 37.1696 39.589 38.7782 39.589 39.4072C39.589 39.8784 39.589 40.3496 39.589 40.8208C39.589 41.2824 39.6397 41.7135 39.4611 42.1154C39.3354 42.398 39.0409 42.6809 38.7318 42.796C38.4657 42.8951 37.688 42.9214 37.3833 42.8724ZM37.2713 35.8153C36.9444 35.8156 34.7987 35.7868 34.6707 35.8326L34.6675 35.9398C34.8277 36.0398 35.3343 35.9536 35.5678 35.9799L35.5675 42.872C35.3432 42.907 34.8366 42.8409 34.6694 42.9009L34.6663 43.0081C34.7868 43.0751 36.974 43.0334 37.2978 43.0344C38.1391 43.0369 38.921 43.0956 39.6474 42.7556C39.8043 42.6822 39.9441 42.6071 40.0777 42.5218C40.1862 42.4525 40.392 42.303 40.4561 42.2353L40.7719 41.887C41.2785 41.2397 41.5844 40.3092 41.5755 39.4072C41.5659 38.4128 41.1107 37.1744 40.4204 36.5883C39.4445 35.7605 38.548 35.8131 37.2713 35.8153Z" fill="#17180A"/>
<path fill-rule="evenodd" clip-rule="evenodd" d="M48.9185 35.8473C49.6357 35.7507 50.2191 36.2864 50.3525 36.8426C50.4664 37.3183 50.4013 38.6773 50.4013 39.247C50.4013 39.7394 50.4249 41.3547 50.3943 41.7181C50.2574 43.3399 48.1213 43.4352 47.7666 42.0052C47.6661 41.5998 47.7292 40.1105 47.7292 39.5937C47.7292 38.7803 47.7027 37.9213 47.7305 37.1133C47.7366 36.9407 47.7793 36.7634 47.8412 36.619C47.9426 36.3836 48.2132 36.1064 48.4365 35.9897C48.5855 35.9117 48.7246 35.8732 48.9185 35.8473ZM52.4235 39.5937C52.465 39.1463 52.3476 38.4759 52.2136 38.065C51.9779 37.3433 51.6812 36.8711 51.1711 36.4201C49.9333 35.3254 47.7452 35.4742 46.6886 36.6604C46.6388 36.7162 46.6181 36.7261 46.5737 36.7842C46.5393 36.8301 46.5281 36.8484 46.4831 36.9061C45.4042 38.2844 45.4524 40.5589 46.5032 41.9674C47.6428 43.4945 50.1831 43.5779 51.4403 42.1842C51.5788 42.0312 51.7096 41.866 51.8254 41.6655C52.2577 40.9188 52.3425 40.463 52.4235 39.5937Z" fill="#17180A"/>
<path fill-rule="evenodd" clip-rule="evenodd" d="M15.2537 15.6784C15.1848 15.8445 15.2316 17.4342 15.2316 17.7486C15.2316 18.442 15.2116 19.1663 15.2316 19.8556L19.7381 19.8588L19.7342 15.1064L19.5894 15.1212C19.4219 15.1087 17.69 15.3473 17.3936 15.3926C17.035 15.4474 16.6685 15.4859 16.3115 15.5318C16.0085 15.5709 15.5287 15.6075 15.2537 15.6784Z" fill="#17170A"/>
<path fill-rule="evenodd" clip-rule="evenodd" d="M15.2402 24.6818L19.7405 25.1126L19.7357 20.5244H15.229L15.2402 24.6818Z" fill="#17180A"/>
<path fill-rule="evenodd" clip-rule="evenodd" d="M9.71919 24.1508L14.3992 24.6111L14.409 20.5166L9.70898 20.5243L9.71919 24.1508Z" fill="#17180A"/>
<path fill-rule="evenodd" clip-rule="evenodd" d="M9.70004 19.8735L14.4224 19.8649L14.4132 15.7822L9.69238 16.4051L9.70004 19.8735Z" fill="#17180A"/>
<path fill-rule="evenodd" clip-rule="evenodd" d="M28.6005 35.859C28.6005 36.0017 28.6206 35.9693 28.768 35.985C29.5582 36.0694 29.472 36.691 29.472 37.2726C29.472 37.9808 29.5167 38.8478 29.4707 39.5358C29.3754 39.4932 28.6939 38.3445 28.5829 38.1662C28.2971 37.7062 28.017 37.2568 27.7267 36.7869C27.0162 35.6354 27.2941 35.8198 26.4219 35.8198C26.0892 35.8198 24.3741 35.7817 24.2166 35.8481C24.2284 35.9783 24.2207 35.9667 24.3764 35.968C24.5212 35.9693 25.0288 35.9356 25.0773 35.9924C25.1257 36.0492 25.0958 41.1291 25.0942 41.914C25.0916 43.2009 24.1968 42.6415 24.2223 43.0071C24.3355 43.0568 25.9632 43.0556 26.0825 43.0155C26.1131 42.9446 26.1074 43.0029 26.0975 42.9003C25.7348 42.7463 25.2384 42.9898 25.2431 41.8867L25.2425 36.2933C25.3507 36.3331 25.2846 36.2744 25.3612 36.3946L29.2605 42.6867C29.4034 42.9221 29.4382 43.0472 29.5907 43.0235C29.6067 42.9917 29.6006 43.0183 29.6124 42.9529L29.6165 42.7672C29.5933 40.8779 29.6156 38.8776 29.613 36.9787C29.6127 36.6641 29.6382 36.3799 29.8274 36.189C29.9225 36.0931 30.0102 36.0485 30.1528 36.0113C30.4833 35.9247 30.475 36.0546 30.4903 35.8429C30.3933 35.8073 28.7054 35.7769 28.6005 35.859Z" fill="#EFA35A"/>
<path fill-rule="evenodd" clip-rule="evenodd" d="M20.188 35.9657C20.3137 35.9654 20.4923 35.9856 20.5823 35.9442C20.5788 35.7825 20.5641 35.8181 20.3752 35.8213C19.3563 35.8396 17.9195 35.7771 16.9905 35.8412C17.0052 36.0048 17.0307 35.9715 17.216 35.9673C17.9632 35.9493 17.878 35.9051 17.877 36.2332C17.8706 38.4416 17.8955 40.6802 17.8738 42.8813L17.5354 42.8851C17.3538 42.8861 16.9557 42.8428 16.9879 42.973C17.0099 43.0616 17.1631 43.033 17.2699 43.033C18.1999 43.0324 19.7873 43.0712 20.5631 43.0157C20.595 42.9474 20.5909 43.0109 20.5788 42.9053C20.3839 42.8399 19.9363 42.9159 19.683 42.8755L19.6823 36.5001C19.6823 36.4035 19.6437 36.0071 19.726 35.983C19.7311 35.9817 19.7401 35.9776 19.7465 35.9759L19.8157 35.9644C19.8463 35.9618 19.9149 35.9641 19.9487 35.9644C20.0285 35.9654 20.1082 35.9657 20.188 35.9657Z" fill="#EFA359"/>
<path fill-rule="evenodd" clip-rule="evenodd" d="M53.5261 23.4606L53.5302 20.2588L49.6609 20.2639V24.028L53.5261 23.4606Z" fill="#17170A"/>
<path fill-rule="evenodd" clip-rule="evenodd" d="M49.6596 19.6347L53.5322 19.6447C53.5188 19.1417 53.5883 16.7084 53.506 16.4521L49.6587 15.9033L49.6596 19.6347Z" fill="#17170A"/>
<path fill-rule="evenodd" clip-rule="evenodd" d="M57.7704 22.848L57.7752 20.2578L54.1707 20.2626L54.177 23.3711L57.7704 22.848Z" fill="#17170A"/>
<path fill-rule="evenodd" clip-rule="evenodd" d="M54.1692 19.6345L57.7766 19.6444C57.7654 19.2326 57.8222 17.2637 57.7578 17.0568L54.1682 16.5439L54.1692 19.6345Z" fill="#17170A"/>
<path fill-rule="evenodd" clip-rule="evenodd" d="M13.9641 55.0954C13.9137 55.2211 13.8913 55.1185 13.8907 55.1175C13.8192 54.9199 13.3436 53.6966 13.2635 53.6084L12.9802 53.6074C12.9496 53.7479 12.9502 55.4004 12.9825 55.5336L13.1758 55.5262L13.1777 53.9699C13.3085 54.1148 13.7385 55.4033 13.8665 55.5377C14.0062 55.5342 13.9787 55.5281 14.0256 55.4024L14.2821 54.7801C14.3935 54.5023 14.5064 54.2361 14.6101 53.9654C14.6142 53.9715 14.6181 53.9801 14.6197 53.9853C14.6216 53.9904 14.6263 53.9994 14.6283 54.0058C14.6726 54.1549 14.6136 55.2712 14.6522 55.5348L14.8573 55.5313L14.8458 53.6055L14.5527 53.6122C14.4771 53.7075 13.9653 54.9912 13.9641 55.0954Z" fill="#19190E"/>
<path fill-rule="evenodd" clip-rule="evenodd" d="M40.9773 53.8024L41.7356 53.8018L41.7363 55.3363L40.7295 55.3398C40.8099 55.0874 40.9049 54.9831 40.9426 54.6566C40.9767 54.3621 40.9732 54.0981 40.9773 53.8024ZM40.4854 55.5345L41.9653 55.5416L41.9663 55.9999L42.1708 55.9849L42.1612 55.3446L41.9471 55.3283L41.9328 53.6045L40.7808 53.6077C40.7212 53.8678 40.7846 54.339 40.7237 54.6669C40.6947 54.8247 40.6574 54.9607 40.5952 55.097C40.3419 55.6532 40.2101 54.9235 40.2806 55.9909L40.4813 55.9945L40.4854 55.5345Z" fill="#191710"/>
<path fill-rule="evenodd" clip-rule="evenodd" d="M7.55335 53.8031L8.31197 53.8022L8.31229 55.3367L7.31058 55.3405C7.3881 55.0948 7.48827 54.988 7.52496 54.6586C7.55814 54.3577 7.54825 54.1056 7.55335 53.8031ZM8.53816 55.3437C8.51582 55.295 8.53433 55.3996 8.51646 55.278L8.51327 53.6209C8.20734 53.6293 7.60918 53.5873 7.34599 53.6418C7.3176 53.9991 7.37375 54.3337 7.30037 54.6987C7.26975 54.8517 7.2321 55.0015 7.16894 55.1224C7.15363 55.1519 7.07993 55.2748 7.06717 55.2876C6.97434 55.3832 7.00082 55.3113 6.86523 55.3569L6.87098 55.9968L7.05728 55.9949L7.06047 55.5349L8.54103 55.5423L8.5423 56.0003L8.74679 55.9853L8.73722 55.3428L8.53816 55.3437Z" fill="#19190E"/>
<path fill-rule="evenodd" clip-rule="evenodd" d="M20.7795 53.8155L21.5385 53.8005L21.5394 55.3337L20.5332 55.3398C20.6171 55.0967 20.702 54.9796 20.7412 54.6636C20.7789 54.358 20.7684 54.1203 20.7795 53.8155ZM20.5533 54.3371C20.5559 54.5527 20.5154 54.7897 20.4478 54.9777C20.2863 55.4264 20.2216 55.3074 20.0764 55.3568L20.0802 55.9986L20.2857 55.9877L20.286 55.5348L21.7618 55.5351L21.765 55.9909L21.9679 55.9945L21.9532 55.3408L21.7548 55.3331L21.7516 53.634L20.5881 53.626C20.5894 53.7475 20.6191 54.2861 20.5533 54.3371Z" fill="#16190D"/>
<path fill-rule="evenodd" clip-rule="evenodd" d="M55.9643 53.6145C55.9213 53.8946 55.9551 54.4832 55.9551 54.7962C55.9544 55.4397 55.8776 55.5548 56.1025 55.5388C56.2256 55.5301 56.2173 55.507 56.2728 55.4185C56.3583 55.2819 57.1275 54.045 57.227 53.9677C57.2413 54.2586 57.2283 54.5816 57.2283 54.8764C57.2286 55.6071 57.1667 55.5413 57.4238 55.532C57.4545 55.3989 57.4548 53.7326 57.4238 53.6065C57.1029 53.5972 57.176 53.6546 57.0164 53.8984C56.9246 54.0389 56.8301 54.1784 56.7408 54.3141C56.6394 54.4684 56.2843 55.0682 56.1803 55.1452C56.1608 54.8629 56.1762 54.5249 56.1762 54.2362C56.1768 53.5574 56.2365 53.5648 55.9643 53.6145Z" fill="#191710"/>
<path fill-rule="evenodd" clip-rule="evenodd" d="M32.664 54.6904C32.5587 53.5292 34.0667 53.4365 34.1914 54.4521C34.2498 54.9297 33.9544 55.3242 33.5531 55.3797C33.0701 55.4467 32.7026 55.1148 32.664 54.6904ZM32.4362 54.7436C32.6113 55.9648 34.5653 55.8323 34.4182 54.4296C34.3621 53.8936 33.8852 53.4798 33.266 53.5687C32.7428 53.6441 32.3459 54.1137 32.4362 54.7436Z" fill="#151710"/>
<path fill-rule="evenodd" clip-rule="evenodd" d="M10.0163 54.6901C9.89249 53.5377 11.4426 53.4334 11.544 54.4499C11.6589 55.6005 10.1254 55.7054 10.0163 54.6901ZM9.79263 54.7434C9.96522 55.9706 11.9099 55.8426 11.7712 54.4265C11.6464 53.1576 9.59165 53.3144 9.79263 54.7434Z" fill="#151710"/>
<path fill-rule="evenodd" clip-rule="evenodd" d="M43.3087 55.5266C43.6066 55.5629 43.5792 55.4625 43.7205 55.253C43.8519 55.058 44.4944 54.0146 44.564 53.9751L44.5748 55.534L44.7793 55.5305L44.7659 53.6094C44.6313 53.5972 44.5665 53.5818 44.4944 53.6829C44.319 53.9283 43.6034 55.1151 43.5074 55.1651L43.4937 53.6082C43.2216 53.5876 43.301 53.6611 43.3023 53.9427C43.3042 54.3318 43.2796 55.2569 43.3087 55.5266Z" fill="#15160E"/>
<path fill-rule="evenodd" clip-rule="evenodd" d="M26.8121 53.8091C26.8462 53.8636 26.8245 53.7594 26.8411 53.8893L26.8197 54.5305C26.6947 54.5626 26.5106 54.5549 26.4101 54.5061C26.1386 54.501 25.922 54.244 26.0802 53.973C26.1992 53.7693 26.5651 53.7818 26.8121 53.8091ZM27.0411 53.6131C26.9129 53.5929 26.4934 53.5974 26.3575 53.6134C26.1345 53.6394 25.9915 53.7212 25.9009 53.8466C25.8033 53.9817 25.7871 54.2283 25.8636 54.3983C25.9475 54.5847 26.0608 54.6107 26.2582 54.6883C26.197 54.9141 25.8132 55.3426 25.7883 55.5351C26.0959 55.5406 26.0011 55.5707 26.2803 55.1082C26.5588 54.6469 26.4404 54.7063 26.828 54.7085C26.8299 54.8105 26.8178 55.4443 26.8315 55.4841C26.8561 55.555 27.0283 55.5867 27.0507 55.4632C27.0768 55.3195 27.0507 53.6824 27.0411 53.6131Z" fill="#161911"/>
<path fill-rule="evenodd" clip-rule="evenodd" d="M51.1169 54.38C51.1115 54.6106 51.0949 54.8384 51.0302 55.0539C50.937 55.3635 50.848 55.3192 50.5654 55.3529L50.5459 55.5335C51.4484 55.7051 51.3135 54.4958 51.3387 53.803L52.0666 53.8129C52.0718 54.169 52.0198 55.2679 52.0826 55.5325H52.2912L52.2903 53.6346L51.1466 53.6211L51.1469 54.1831C51.1469 54.2052 51.1488 54.2738 51.1466 54.2912L51.1169 54.38Z" fill="#191710"/>
<path fill-rule="evenodd" clip-rule="evenodd" d="M35.8152 54.6334C36.1709 54.5985 36.6903 54.5921 36.668 55.0094C36.6475 55.394 36.1585 55.3641 35.8133 55.3542L35.8152 54.6334ZM36.3566 55.504C36.7477 55.5329 37.0147 55.1043 36.8345 54.7297C36.6696 54.3868 36.2102 54.4583 35.8127 54.4278L35.8175 53.8075C35.9805 53.787 36.2233 53.8011 36.3958 53.8011C36.6051 53.8014 36.8405 53.8729 36.7417 53.6227C36.6134 53.5666 35.8171 53.5906 35.628 53.6099L35.6257 55.511C35.8653 55.5245 36.126 55.5152 36.3566 55.504Z" fill="#151710"/>
<path fill-rule="evenodd" clip-rule="evenodd" d="M16.4435 54.8343C16.4677 54.7063 16.7794 53.9452 16.848 53.8971L17.2225 54.8308L16.4435 54.8343ZM15.927 55.531C16.1832 55.5499 16.1427 55.5477 16.2253 55.3459C16.3972 54.9254 16.2151 55.0242 17.3189 55.0393C17.3849 55.1958 17.4458 55.4187 17.5393 55.5339L17.7409 55.5329C17.7355 55.43 17.0024 53.7043 16.9252 53.6064L16.7488 53.6068C16.6722 53.7271 15.9359 55.4345 15.927 55.531Z" fill="#151710"/>
<path fill-rule="evenodd" clip-rule="evenodd" d="M24.4041 53.8056C24.4073 53.8116 24.4134 53.8132 24.4143 53.8235L24.4316 53.8889C24.4517 54.0923 24.4096 55.1694 24.4338 55.5142L24.6166 55.5136L24.6169 53.6214C24.3298 53.6208 23.7256 53.5903 23.4739 53.6384C23.4509 54.0006 23.4946 54.3727 23.4439 54.7374C23.3862 55.1515 23.3434 55.3503 22.9147 55.3455L22.8997 55.5361C23.7955 55.6785 23.6694 54.5279 23.6816 53.8017L24.4041 53.8056Z" fill="#19190E"/>
<path fill-rule="evenodd" clip-rule="evenodd" d="M48.6167 55.3293L48.6171 54.6284L49.5288 54.6255L49.5192 54.4321L48.6158 54.4325L48.6171 53.8025C48.8228 53.7999 49.0292 53.8015 49.235 53.8015C49.4456 53.8015 49.6791 53.8737 49.5808 53.6225C49.4609 53.5702 48.6375 53.5985 48.4391 53.6078C48.3603 53.7566 48.3995 55.2372 48.4094 55.5163L49.6079 55.5173L49.6067 55.3582C49.4388 55.3543 49.2704 55.3569 49.1023 55.3569C48.8927 55.3572 48.7077 55.3813 48.6167 55.3293Z" fill="#19190E"/>
<path fill-rule="evenodd" clip-rule="evenodd" d="M54.7946 55.4901L54.7872 55.3393L53.7874 55.3406L53.7903 54.6272L54.6973 54.626L54.688 54.4313L53.7874 54.4338L53.7925 53.8026C54.0092 53.7968 54.6067 53.8427 54.7652 53.7843L54.7681 53.6492C54.6303 53.5816 53.7906 53.6117 53.5842 53.6226L53.5849 55.5141C53.8037 55.5202 54.6481 55.5584 54.7946 55.4901Z" fill="#19190E"/>
<path fill-rule="evenodd" clip-rule="evenodd" d="M29.8198 55.5267C30.0699 55.5681 30.024 55.5123 30.0211 55.2769L30.0243 53.8007L31.0366 53.8055L31.0464 55.5348L31.2225 55.5274L31.2219 53.6211L29.8205 53.6256L29.8198 55.5267Z" fill="#151710"/>
<path fill-rule="evenodd" clip-rule="evenodd" d="M38.3089 55.3234L38.3092 54.628L39.2366 54.6255L39.227 54.4321L38.3066 54.4279L38.3114 53.8018L39.2908 53.7998L39.2796 53.6045L38.1213 53.6099L38.1184 55.5117L39.3122 55.5143L39.3147 55.3607L38.5446 55.3587C38.35 55.3578 38.3644 55.377 38.3089 55.3234Z" fill="#19190E"/>
<path fill-rule="evenodd" clip-rule="evenodd" d="M46.4854 53.8023L46.4915 55.5309L46.6845 55.5315L46.6928 53.802L47.3222 53.7988L47.3142 53.6057H45.9986C45.9182 53.6057 45.8905 53.5838 45.8554 53.6409C45.8343 53.6756 45.8455 53.7625 45.8646 53.7818C45.9055 53.8231 46.3897 53.802 46.4854 53.8023Z" fill="#191710"/>
<path fill-rule="evenodd" clip-rule="evenodd" d="M15.2401 24.6813L15.229 20.5239H19.7357L19.7405 25.1121C19.7874 25.0322 19.7654 24.6444 19.7654 24.5501C19.7654 23.9801 19.7915 20.7164 19.7532 20.5072C19.565 20.4729 15.3853 20.4748 15.2136 20.5091C15.1741 20.6945 15.1993 23.694 15.1996 24.2033C15.1996 24.3663 15.1687 24.6412 15.2401 24.6813Z" fill="#655A43"/>
<path fill-rule="evenodd" clip-rule="evenodd" d="M9.7191 24.1508L9.70889 20.5243L14.409 20.5166L14.3991 24.6111C14.4491 24.5351 14.4338 24.4671 14.4326 24.3638C14.4259 23.7348 14.46 20.7283 14.4204 20.5079C14.2478 20.4698 9.89519 20.4698 9.69581 20.5095C9.64253 20.7604 9.68943 23.2617 9.68081 23.9644C9.67794 24.1925 9.68879 24.1306 9.7191 24.1508Z" fill="#655A43"/>
<path fill-rule="evenodd" clip-rule="evenodd" d="M15.2537 15.6784C15.195 15.7117 15.2196 15.6354 15.1989 15.773C15.1973 15.782 15.2001 15.8898 15.2001 15.9081C15.2081 16.5643 15.173 19.6456 15.2126 19.8826L19.7528 19.8714C19.7924 19.6664 19.7901 15.2861 19.7503 15.0927C19.6635 15.0789 19.6459 15.0734 19.5895 15.1212L19.7343 15.1065L19.7381 19.8589L15.2317 19.8557C15.2116 19.1663 15.2317 18.4421 15.2317 17.7486C15.2317 17.4342 15.1848 15.8445 15.2537 15.6784Z" fill="#61533D"/>
<path fill-rule="evenodd" clip-rule="evenodd" d="M53.5261 23.4609C53.564 23.4153 53.5398 23.5164 53.5612 23.3784L53.5602 23.0573C53.5609 22.4983 53.5915 20.4794 53.5484 20.2414C53.328 20.2016 50.475 20.2356 49.8714 20.2282C49.784 20.2273 49.6995 20.2064 49.6609 20.2642L53.5302 20.259L53.5261 23.4609Z" fill="#665A3D"/>
<path fill-rule="evenodd" clip-rule="evenodd" d="M57.7704 22.8485C57.8094 22.802 57.7918 22.8572 57.8062 22.7648L57.8049 22.5239C57.8046 22.0617 57.8317 20.4524 57.7931 20.2414C57.6029 20.2064 55.4269 20.2282 55.0448 20.2282C54.9516 20.2282 54.2214 20.1888 54.1707 20.2632L57.7752 20.2584L57.7704 22.8485Z" fill="#655A43"/>
<path fill-rule="evenodd" clip-rule="evenodd" d="M49.6597 19.6347C49.719 19.6938 49.6979 19.6707 49.8983 19.6687C50.4875 19.663 53.344 19.6947 53.5478 19.6582C53.5919 19.4269 53.5587 17.6951 53.5587 17.2156C53.5587 17.0379 53.5989 16.4836 53.506 16.4521C53.5884 16.7084 53.5188 19.1417 53.5322 19.6447L49.6597 19.6347Z" fill="#61533D"/>
<path fill-rule="evenodd" clip-rule="evenodd" d="M54.1692 19.6343C54.211 19.6757 54.151 19.6635 54.2732 19.6718C54.6174 19.6959 57.7345 19.668 57.7919 19.6577C57.8296 19.4617 57.8025 17.8072 57.8028 17.3485C57.8028 17.2436 57.8344 17.098 57.7578 17.0566C57.8222 17.2635 57.7655 19.2324 57.7766 19.6442L54.1692 19.6343Z" fill="#5C513C"/>
<path fill-rule="evenodd" clip-rule="evenodd" d="M56.7376 53.2732C56.5347 53.3027 56.4945 53.1751 56.4355 53.0625C56.2562 53.075 56.2645 53.1395 56.3592 53.2877C56.5136 53.5289 57.1025 53.5145 57.0901 53.0705C56.8384 53.0526 56.98 53.2383 56.7376 53.2732Z" fill="#151710"/>
<path fill-rule="evenodd" clip-rule="evenodd" d="M29.8197 55.527L29.8204 53.6259L31.2218 53.6214L31.2225 55.5276C31.2403 55.493 31.2288 55.5623 31.248 55.4635L31.2505 55.2765C31.2477 54.9099 31.2729 53.7933 31.2365 53.5957L29.8031 53.6095C29.7633 53.8263 29.7907 54.3351 29.7907 54.583C29.7907 54.7745 29.7559 55.4115 29.8197 55.527Z" fill="#61533D"/>
<path fill-rule="evenodd" clip-rule="evenodd" d="M24.4041 53.8056L24.4159 55.5396L24.6322 55.5313C24.6597 55.386 24.6597 53.7405 24.6306 53.609C24.495 53.5794 23.9537 53.5971 23.7425 53.5964C23.7013 53.5964 23.6168 53.5907 23.5817 53.5939C23.4653 53.6041 23.5106 53.582 23.4739 53.6385C23.7256 53.5904 24.3298 53.6208 24.6169 53.6215L24.6166 55.5136L24.4338 55.5143C24.4096 55.1695 24.4517 54.0923 24.4316 53.889L24.4143 53.8235C24.4134 53.8133 24.4073 53.8117 24.4041 53.8056Z" fill="#61533D"/>
<path fill-rule="evenodd" clip-rule="evenodd" d="M38.3088 55.3239C38.3643 55.3774 38.35 55.3582 38.5446 55.3591L39.3147 55.3611L39.3121 55.5147L38.1184 55.5121L38.1212 53.6104C38.1053 53.6411 38.1136 53.5796 38.096 53.6761C38.0664 53.8381 38.1005 55.5205 38.1034 55.5426L39.3354 55.5314L39.3281 55.3322L38.3088 55.3239Z" fill="#61533D"/>
<path fill-rule="evenodd" clip-rule="evenodd" d="M48.6168 55.3289C48.7078 55.3809 48.8928 55.3569 49.1024 55.3565C49.2705 55.3565 49.4389 55.354 49.6067 55.3578L49.608 55.5169L48.4095 55.5159C48.3996 55.2369 48.3603 53.7563 48.4391 53.6074C48.3881 53.6344 48.3814 53.5446 48.3849 53.8358C48.3859 53.9157 48.3852 53.9962 48.3852 54.0761C48.3856 54.2361 48.3856 54.3962 48.3856 54.5562C48.3852 54.8266 48.3594 55.2853 48.3951 55.5432L49.6291 55.5313L49.6214 55.3299L48.6168 55.3289Z" fill="#655A43"/>
<path fill-rule="evenodd" clip-rule="evenodd" d="M54.7946 55.4907C54.6482 55.559 53.8038 55.5208 53.5849 55.5148L53.5843 53.6232C53.7907 53.6123 54.6303 53.5822 54.7681 53.6499C54.7324 53.5806 54.7924 53.5995 54.6488 53.5918L53.5581 53.6094L53.5712 55.5318C53.7352 55.5622 54.0181 55.5449 54.1958 55.5452C54.3789 55.5452 54.7688 55.5844 54.7946 55.4907Z" fill="#655A43"/>
<path fill-rule="evenodd" clip-rule="evenodd" d="M36.3567 55.5044C36.1261 55.5157 35.8654 55.525 35.6259 55.5115L35.6281 53.6104C35.5633 53.7358 35.6023 55.4794 35.6096 55.5333C35.7181 55.5468 36.3229 55.5747 36.3567 55.5044Z" fill="#61533D"/>
<path fill-rule="evenodd" clip-rule="evenodd" d="M8.53811 55.3438L8.52918 53.6091C8.37446 53.5761 8.10233 53.5979 7.93262 53.5976C7.82639 53.5976 7.72015 53.5982 7.61424 53.5979C7.57436 53.5976 7.48631 53.5918 7.45314 53.595C7.33 53.6062 7.38136 53.5832 7.34595 53.6419C7.60914 53.5873 8.20729 53.6293 8.51323 53.621L8.51642 55.2781C8.53428 55.3996 8.51578 55.2951 8.53811 55.3438Z" fill="#5D5233"/>
<path fill-rule="evenodd" clip-rule="evenodd" d="M51.1169 54.3804L51.1466 54.2915C51.1488 54.2742 51.1469 54.2055 51.1469 54.1834L51.1466 53.6214L52.2903 53.6349C52.2255 53.5717 52.126 53.5948 51.9939 53.5955C51.7827 53.5971 51.2685 53.5823 51.1214 53.6096L51.1169 54.3804Z" fill="#5D5442"/>
<path fill-rule="evenodd" clip-rule="evenodd" d="M20.5532 54.3373C20.6189 54.2863 20.5893 53.7477 20.588 53.6261L21.7514 53.6342C21.7087 53.5848 21.7674 53.6184 21.6979 53.5986C21.6972 53.5982 21.6264 53.5941 21.6222 53.5938L20.5634 53.6098L20.5532 54.3373Z" fill="#5D5442"/>
<path fill-rule="evenodd" clip-rule="evenodd" d="M26.4102 54.5056C26.5106 54.5544 26.6947 54.5621 26.8198 54.53L26.8411 53.8888C26.8246 53.7589 26.8463 53.8631 26.8121 53.8086L26.8131 54.5107L26.4102 54.5056Z" fill="#776A55"/>
<path fill-rule="evenodd" clip-rule="evenodd" d="M10.6902 40.6337C10.6669 40.6474 10.642 40.6691 10.6382 40.6621C10.634 40.6551 10.6197 40.6666 10.6092 40.6733L10.5425 40.6133C10.5827 40.7061 10.5686 40.6898 10.6449 40.7202L10.6902 40.6337Z" fill="#E7B888"/>
<path fill-rule="evenodd" clip-rule="evenodd" d="M64.7567 20.4395L64.7117 20.4548C64.7465 20.4921 64.6533 20.5068 64.7541 20.4879C64.8447 20.3776 64.7605 20.4442 64.7567 20.4395Z" fill="#8E846F"/>
<path fill-rule="evenodd" clip-rule="evenodd" d="M0.0778626 20.2706L0.0676541 20.2588C0.00448892 20.3015 0.0306482 20.2515 0.00512695 20.3389C0.0762676 20.3111 0.0443659 20.3312 0.0778626 20.2706Z" fill="#504732"/>
<path fill-rule="evenodd" clip-rule="evenodd" d="M13.8906 55.1167C13.8913 55.1177 13.9136 55.2198 13.964 55.0947L13.8906 55.1167Z" fill="#675A46"/>
</svg>
