<svg width="17" height="17" viewBox="0 0 17 17" fill="none" xmlns="http://www.w3.org/2000/svg">
<path d="M6 4.0325V15.5833M11 1V12.6667M1 5.75833C1 4.53 1 3.91667 1.3275 3.55833C1.44341 3.43086 1.58441 3.32872 1.74167 3.25833C2.185 3.06167 2.7675 3.25583 3.9325 3.64417C4.82167 3.94083 5.26583 4.08917 5.71583 4.07333C5.88091 4.06791 6.04505 4.04613 6.20583 4.00833C6.64333 3.90417 7.03333 3.64417 7.81333 3.125L8.965 2.35667C9.965 1.69 10.4642 1.35667 11.0375 1.28083C11.6108 1.20333 12.1808 1.39333 13.32 1.77333L14.2908 2.09667C15.1158 2.37167 15.5283 2.50917 15.7642 2.83667C16 3.16417 16 3.59917 16 4.46833V11.2425C16 12.47 16 13.0842 15.6725 13.4425C15.5564 13.5694 15.4154 13.6709 15.2583 13.7408C14.815 13.9383 14.2325 13.7442 13.0675 13.3558C12.1783 13.0592 11.7342 12.9108 11.2842 12.9267C11.1191 12.9321 10.955 12.9539 10.7942 12.9917C10.3567 13.0958 9.96667 13.3558 9.18667 13.875L8.035 14.6433C7.035 15.31 6.53583 15.6433 5.9625 15.7192C5.38917 15.7967 4.81917 15.6067 3.68 15.2267L2.70917 14.9033C1.88417 14.6283 1.47167 14.4908 1.23583 14.1633C1 13.8358 1 13.4 1 12.5317V5.7575V5.75833Z" stroke="black" stroke-width="1.5"/>
</svg>
