<svg width="25" height="25" viewBox="0 0 25 25" fill="none" xmlns="http://www.w3.org/2000/svg">
<path d="M12.5 6.44531C11.766 6.44531 11.0486 6.66295 10.4383 7.07072C9.82805 7.47848 9.35241 8.05805 9.07154 8.73614C8.79067 9.41422 8.71718 10.1604 8.86037 10.8802C9.00355 11.6001 9.35699 12.2613 9.87597 12.7803C10.395 13.2993 11.0562 13.6527 11.776 13.7959C12.4959 13.9391 13.242 13.8656 13.9201 13.5847C14.5982 13.3038 15.1778 12.8282 15.5855 12.2179C15.9933 11.6077 16.2109 10.8902 16.2109 10.1562C16.2109 9.17205 15.82 8.22816 15.124 7.53222C14.4281 6.83629 13.4842 6.44531 12.5 6.44531ZM12.5 12.6953C11.9978 12.6953 11.5069 12.5464 11.0894 12.2674C10.6718 11.9884 10.3464 11.5919 10.1542 11.1279C9.96204 10.664 9.91175 10.1534 10.0097 9.6609C10.1077 9.16837 10.3495 8.71596 10.7046 8.36086C11.0597 8.00577 11.5121 7.76395 12.0047 7.66597C12.4972 7.568 13.0077 7.61829 13.4717 7.81046C13.9356 8.00264 14.3322 8.32808 14.6112 8.74562C14.8901 9.16317 15.0391 9.65407 15.0391 10.1562C15.0391 10.8297 14.7716 11.4755 14.2954 11.9516C13.8192 12.4278 13.1734 12.6953 12.5 12.6953ZM12.5 1.75781C10.2734 1.7604 8.13872 2.64606 6.56426 4.22051C4.98981 5.79497 4.10415 7.92964 4.10156 10.1562C4.10156 13.1748 5.50195 16.3809 8.15137 19.4277C9.34718 20.8097 10.693 22.0543 12.1641 23.1387C12.2625 23.2076 12.3798 23.2445 12.5 23.2445C12.6202 23.2445 12.7375 23.2076 12.8359 23.1387C14.307 22.0543 15.6528 20.8097 16.8486 19.4277C19.498 16.3809 20.8984 13.1777 20.8984 10.1562C20.8959 7.92964 20.0102 5.79497 18.4357 4.22051C16.8613 2.64606 14.7266 1.7604 12.5 1.75781ZM12.5 21.9248C11.0352 20.7939 5.27344 15.9785 5.27344 10.1562C5.27344 8.23965 6.0348 6.40154 7.39005 5.0463C8.74529 3.69106 10.5834 2.92969 12.5 2.92969C14.4166 2.92969 16.2547 3.69106 17.61 5.0463C18.9652 6.40154 19.7266 8.23965 19.7266 10.1562C19.7266 15.9785 13.9648 20.7939 12.5 21.9248Z" fill="#EFA35A"/>
</svg>
