<svg width="28" height="28" viewBox="0 0 28 28" fill="none" xmlns="http://www.w3.org/2000/svg">
<path d="M26.4022 18.6642L19.9613 15.778L19.9436 15.7698C19.6092 15.6268 19.2444 15.5694 18.8823 15.6029C18.5202 15.6363 18.1721 15.7595 17.8695 15.9612C17.8339 15.9848 17.7997 16.0103 17.767 16.0378L14.4393 18.8747C12.3311 17.8507 10.1545 15.6905 9.13048 13.6097L11.9715 10.2314C11.9988 10.1972 12.0248 10.163 12.0494 10.1261C12.2469 9.82436 12.3667 9.47848 12.3982 9.11926C12.4297 8.76003 12.3719 8.39859 12.2299 8.06711V8.0507L9.33556 1.59894C9.1479 1.16591 8.82522 0.805174 8.4157 0.570596C8.00617 0.336019 7.53176 0.240178 7.06329 0.29738C5.21071 0.541158 3.51022 1.45097 2.27941 2.85688C1.04861 4.2628 0.371663 6.06868 0.375012 7.93722C0.375012 18.7927 9.20704 27.6247 20.0625 27.6247C21.9311 27.6281 23.7369 26.9511 25.1429 25.7203C26.5488 24.4895 27.4586 22.789 27.7024 20.9364C27.7597 20.4681 27.664 19.9938 27.4297 19.5843C27.1954 19.1748 26.8349 18.8521 26.4022 18.6642ZM20.0625 25.4372C15.4228 25.4322 10.9745 23.5868 7.69374 20.306C4.41295 17.0252 2.56758 12.577 2.56251 7.93722C2.55737 6.60215 3.03836 5.31085 3.91567 4.30448C4.79297 3.29811 6.0066 2.64548 7.3299 2.46847C7.32936 2.47393 7.32936 2.47942 7.3299 2.48488L10.201 8.91066L7.37501 12.2931C7.34633 12.3261 7.32027 12.3613 7.29708 12.3984C7.09134 12.7141 6.97065 13.0776 6.94669 13.4536C6.92274 13.8297 6.99634 14.2056 7.16036 14.5448C8.39904 17.0782 10.9516 19.6116 13.5123 20.8489C13.8541 21.0114 14.2321 21.0825 14.6095 21.0552C14.987 21.0279 15.3509 20.9031 15.6656 20.6931C15.7007 20.6694 15.7345 20.6439 15.7668 20.6165L19.0904 17.781L25.5162 20.6589H25.5313C25.3564 21.9841 24.7048 23.2001 23.6982 24.0796C22.6917 24.9591 21.3992 25.4417 20.0625 25.4372Z" fill="#EFA35A"/>
</svg>
