<svg width="16" height="25" viewBox="0 0 16 25" fill="none" xmlns="http://www.w3.org/2000/svg">
<path d="M8.73202 0.685547V6.67898H14.7255V10.4252H8.73202V16.4187C8.73202 17.8109 8.86421 18.9288 9.01187 19.324C9.15952 19.7177 9.43233 20.0327 9.83452 20.2704C10.3675 20.5896 10.9736 20.7499 11.6584 20.7499C12.8748 20.7499 14.2881 20.3365 15.475 19.4154V23.1616C14.4766 23.786 13.3305 24.1741 12.498 24.3682C11.6669 24.5609 10.7669 24.6593 9.79937 24.6593C8.78827 24.6593 7.81233 24.5482 6.88843 24.243C6.04468 23.966 5.57358 23.658 4.97593 23.1476C4.38108 22.6343 4.0914 22.1182 3.86077 21.5388C3.63015 20.9623 3.48671 19.7641 3.48671 18.6659V10.4252H0.48999V6.67898C1.44905 6.60867 2.24358 6.33867 2.91296 5.76773C3.58796 5.19398 4.12796 4.50633 4.53296 3.70477C4.94077 2.9018 4.98577 1.91883 4.98577 0.685547H8.73202Z" fill="#414753"/>
</svg>
