<svg width="31" height="19" viewBox="0 0 31 19" fill="none" xmlns="http://www.w3.org/2000/svg">
<path d="M29.4693 1.99768C29.6735 1.31956 29.4693 0.822266 28.5039 0.822266H25.3058C24.492 0.822266 24.1202 1.25247 23.916 1.72497C23.916 1.72497 22.29 5.69018 19.9858 8.26122C19.242 9.00935 18.9023 9.2456 18.4968 9.2456C18.2941 9.2456 17.9995 9.00935 17.9995 8.33122V1.99768C17.9995 1.18393 17.7648 0.822266 17.0866 0.822266H12.0612C11.5537 0.822266 11.2475 1.19852 11.2475 1.55727C11.2475 2.32727 12.3995 2.50518 12.5177 4.67518V9.38268C12.5177 10.4137 12.3325 10.6018 11.9241 10.6018C10.8406 10.6018 8.20392 6.62206 6.63913 2.06622C6.33433 1.18102 6.02663 0.823725 5.20996 0.823725H2.01329C1.09892 0.823725 0.916626 1.25393 0.916626 1.72643C0.916626 2.57518 2.00017 6.77518 5.96392 12.33C8.60642 16.1231 12.3266 18.1793 15.7158 18.1793C17.7473 18.1793 17.9981 17.7229 17.9981 16.9354V14.0683C17.9981 13.1554 18.192 12.9716 18.8352 12.9716C19.3077 12.9716 20.1214 13.2108 22.0187 15.0381C24.1858 17.2052 24.5445 18.1779 25.7623 18.1779H28.9589C29.8718 18.1779 30.3283 17.7214 30.0658 16.8202C29.7785 15.9233 28.7431 14.6181 27.3693 13.0737C26.6227 12.1929 25.507 11.245 25.1673 10.771C24.6933 10.16 24.8304 9.89018 25.1673 9.34768C25.1687 9.34914 29.0639 3.86289 29.4693 1.99768Z" fill="#414753"/>
</svg>
