<svg width="40" height="40" viewBox="0 0 40 40" fill="none" xmlns="http://www.w3.org/2000/svg">
<path d="M11.615 11.6153C11.7312 11.4989 11.8691 11.4065 12.021 11.3435C12.1728 11.2805 12.3356 11.248 12.5 11.248C12.6645 11.248 12.8273 11.2805 12.9791 11.3435C13.131 11.4065 13.2689 11.4989 13.385 11.6153L20 18.2328L26.615 11.6153C26.7313 11.4991 26.8692 11.4069 27.0211 11.344C27.1729 11.2811 27.3357 11.2487 27.5 11.2487C27.6644 11.2487 27.8271 11.2811 27.979 11.344C28.1308 11.4069 28.2688 11.4991 28.385 11.6153C28.5013 11.7315 28.5934 11.8695 28.6563 12.0213C28.7192 12.1732 28.7516 12.3359 28.7516 12.5003C28.7516 12.6646 28.7192 12.8274 28.6563 12.9792C28.5934 13.1311 28.5013 13.2691 28.385 13.3853L21.7675 20.0003L28.385 26.6153C28.5013 26.7315 28.5934 26.8695 28.6563 27.0213C28.7192 27.1732 28.7516 27.3359 28.7516 27.5003C28.7516 27.6646 28.7192 27.8274 28.6563 27.9792C28.5934 28.1311 28.5013 28.2691 28.385 28.3853C28.2688 28.5015 28.1308 28.5937 27.979 28.6566C27.8271 28.7195 27.6644 28.7519 27.5 28.7519C27.3357 28.7519 27.1729 28.7195 27.0211 28.6566C26.8692 28.5937 26.7313 28.5015 26.615 28.3853L20 21.7678L13.385 28.3853C13.2688 28.5015 13.1308 28.5937 12.979 28.6566C12.8271 28.7195 12.6644 28.7519 12.5 28.7519C12.3357 28.7519 12.1729 28.7195 12.0211 28.6566C11.8692 28.5937 11.7313 28.5015 11.615 28.3853C11.4988 28.2691 11.4066 28.1311 11.3437 27.9792C11.2808 27.8274 11.2485 27.6646 11.2485 27.5003C11.2485 27.3359 11.2808 27.1732 11.3437 27.0213C11.4066 26.8695 11.4988 26.7315 11.615 26.6153L18.2325 20.0003L11.615 13.3853C11.4986 13.2692 11.4063 13.1312 11.3433 12.9794C11.2802 12.8275 11.2478 12.6647 11.2478 12.5003C11.2478 12.3359 11.2802 12.1731 11.3433 12.0212C11.4063 11.8693 11.4986 11.7314 11.615 11.6153Z" fill="black"/>
</svg>
