<svg width="29" height="21" viewBox="0 0 29 21" fill="none" xmlns="http://www.w3.org/2000/svg">
<path d="M27.8237 4.70328C27.8237 4.70328 27.5583 2.70378 26.7438 1.82328C25.7087 0.669782 24.5508 0.662282 24.0198 0.596282C20.2143 0.300782 14.5067 0.300781 14.5067 0.300781H14.4933C14.4933 0.300781 8.78575 0.300782 4.98175 0.596282C4.45075 0.662282 3.29275 0.668282 2.25775 1.82328C1.44325 2.70378 1.17775 4.70328 1.17775 4.70328C1.17775 4.70328 0.90625 7.04928 0.90625 9.39678V11.5958C0.90625 13.9448 1.17775 16.2908 1.17775 16.2908C1.17775 16.2908 1.44325 18.2903 2.25775 19.1693C3.29275 20.3228 4.65025 20.2883 5.25625 20.4098C7.43125 20.6318 14.5007 20.7008 14.5007 20.7008C14.5007 20.7008 20.2143 20.6903 24.0198 20.3993C24.5508 20.3318 25.7087 20.3243 26.7438 19.1708C27.5583 18.2918 27.8237 16.2923 27.8237 16.2923C27.8237 16.2923 28.0952 13.9448 28.0952 11.5973V9.39828C28.0952 7.04928 27.8237 4.70328 27.8237 4.70328ZM11.1048 15.6008V5.40078L19.6038 10.5008L11.1048 15.6008Z" fill="#414753"/>
</svg>
